# Blender v3.0.0 OBJ File: ''
# www.blender.org
mtllib cube_same_UV.mtl
o Cube
v 1.000000 1.000000 -1.000000
v 1.000000 -1.000000 -1.000000
v 1.000000 1.000000 1.000000
v 1.000000 -1.000000 1.000000
v -1.000000 1.000000 -1.000000
v -1.000000 -1.000000 -1.000000
v -1.000000 1.000000 1.000000
v -1.000000 -1.000000 1.000000
vt 0.000599 0.000599
vt 0.999401 0.000599
vt 0.999401 0.999401
vt 0.000599 0.999401
vt 0.999401 0.999401
vt 0.000599 0.000599
vt 0.999401 0.000599
vt 0.000599 0.999401
vt 0.000599 0.000599
vt 0.999401 0.000599
vt 0.000599 0.999401
vt 0.999401 0.999401
vt 0.000599 0.999401
vt 0.000599 0.000599
vt 0.999401 0.000599
vt 0.999401 0.000599
vt 0.999401 0.999401
vt 0.000599 0.000599
vn 0.0000 1.0000 0.0000
vn 0.0000 0.0000 1.0000
vn -1.0000 0.0000 0.0000
vn 0.0000 -1.0000 0.0000
vn 1.0000 0.0000 0.0000
vn 0.0000 0.0000 -1.0000
usemtl Material
s off
f 1/1/1 5/2/1 7/3/1 3/4/1
f 4/5/2 3/4/2 7/6/2 8/7/2
f 8/7/3 7/3/3 5/8/3 6/9/3
f 6/9/4 2/10/4 4/5/4 8/11/4
f 2/12/5 1/13/5 3/14/5 4/15/5
f 6/16/6 5/17/6 1/13/6 2/18/6
