{
    "asset" : {
        "generator" : "Khronos glTF Blender I/O v3.3.32",
        "version" : "2.0"
    },
    "scene" : 0,
    "scenes" : [
        {
            "name" : "Scene",
            "nodes" : [
                4
            ]
        }
    ],
    "nodes" : [
        {
            "name" : "Bone.002",
            "rotation" : [
                -3.5527119847346064e-15,
                0,
                -2.0194839173657902e-28,
                1
            ],
            "translation" : [
                0,
                1.445048451423645,
                0
            ]
        },
        {
            "children" : [
                0
            ],
            "name" : "Bone.001",
            "rotation" : [
                -3.5527119847346064e-15,
                1.7763568394002505e-14,
                -2.0194839173657902e-28,
                1
            ],
            "translation" : [
                0,
                1.6102612018585205,
                0
            ]
        },
        {
            "children" : [
                1
            ],
            "name" : "Bone",
            "rotation" : [
                -2.980232594040899e-08,
                1.1920927533992653e-07,
                0,
                1
            ],
            "scale" : [
                1,
                0.9999999403953552,
                0.9999999403953552
            ]
        },
        {
            "mesh" : 0,
            "name" : "Cube",
            "skin" : 0
        },
        {
            "children" : [
                3,
                2
            ],
            "name" : "Armature"
        }
    ],
    "animations" : [
        {
            "channels" : [
                {
                    "sampler" : 0,
                    "target" : {
                        "node" : 2,
                        "path" : "rotation"
                    }
                },
                {
                    "sampler" : 1,
                    "target" : {
                        "node" : 2,
                        "path" : "translation"
                    }
                },
                {
                    "sampler" : 2,
                    "target" : {
                        "node" : 2,
                        "path" : "scale"
                    }
                },
                {
                    "sampler" : 3,
                    "target" : {
                        "node" : 1,
                        "path" : "rotation"
                    }
                },
                {
                    "sampler" : 4,
                    "target" : {
                        "node" : 1,
                        "path" : "translation"
                    }
                },
                {
                    "sampler" : 5,
                    "target" : {
                        "node" : 1,
                        "path" : "scale"
                    }
                },
                {
                    "sampler" : 6,
                    "target" : {
                        "node" : 0,
                        "path" : "rotation"
                    }
                },
                {
                    "sampler" : 7,
                    "target" : {
                        "node" : 0,
                        "path" : "translation"
                    }
                },
                {
                    "sampler" : 8,
                    "target" : {
                        "node" : 0,
                        "path" : "scale"
                    }
                }
            ],
            "name" : "Idle0",
            "samplers" : [
                {
                    "input" : 7,
                    "interpolation" : "STEP",
                    "output" : 8
                },
                {
                    "input" : 7,
                    "interpolation" : "STEP",
                    "output" : 9
                },
                {
                    "input" : 7,
                    "interpolation" : "STEP",
                    "output" : 10
                },
                {
                    "input" : 7,
                    "interpolation" : "STEP",
                    "output" : 11
                },
                {
                    "input" : 7,
                    "interpolation" : "STEP",
                    "output" : 12
                },
                {
                    "input" : 7,
                    "interpolation" : "STEP",
                    "output" : 13
                },
                {
                    "input" : 7,
                    "interpolation" : "STEP",
                    "output" : 14
                },
                {
                    "input" : 7,
                    "interpolation" : "STEP",
                    "output" : 15
                },
                {
                    "input" : 7,
                    "interpolation" : "STEP",
                    "output" : 16
                }
            ]
        },
        {
            "channels" : [
                {
                    "sampler" : 0,
                    "target" : {
                        "node" : 2,
                        "path" : "rotation"
                    }
                },
                {
                    "sampler" : 1,
                    "target" : {
                        "node" : 2,
                        "path" : "translation"
                    }
                },
                {
                    "sampler" : 2,
                    "target" : {
                        "node" : 2,
                        "path" : "scale"
                    }
                },
                {
                    "sampler" : 3,
                    "target" : {
                        "node" : 1,
                        "path" : "rotation"
                    }
                },
                {
                    "sampler" : 4,
                    "target" : {
                        "node" : 1,
                        "path" : "translation"
                    }
                },
                {
                    "sampler" : 5,
                    "target" : {
                        "node" : 1,
                        "path" : "scale"
                    }
                },
                {
                    "sampler" : 6,
                    "target" : {
                        "node" : 0,
                        "path" : "rotation"
                    }
                },
                {
                    "sampler" : 7,
                    "target" : {
                        "node" : 0,
                        "path" : "translation"
                    }
                },
                {
                    "sampler" : 8,
                    "target" : {
                        "node" : 0,
                        "path" : "scale"
                    }
                }
            ],
            "name" : "Spring0",
            "samplers" : [
                {
                    "input" : 7,
                    "interpolation" : "STEP",
                    "output" : 17
                },
                {
                    "input" : 7,
                    "interpolation" : "STEP",
                    "output" : 18
                },
                {
                    "input" : 7,
                    "interpolation" : "STEP",
                    "output" : 19
                },
                {
                    "input" : 7,
                    "interpolation" : "STEP",
                    "output" : 20
                },
                {
                    "input" : 7,
                    "interpolation" : "STEP",
                    "output" : 21
                },
                {
                    "input" : 7,
                    "interpolation" : "STEP",
                    "output" : 22
                },
                {
                    "input" : 7,
                    "interpolation" : "STEP",
                    "output" : 23
                },
                {
                    "input" : 7,
                    "interpolation" : "STEP",
                    "output" : 24
                },
                {
                    "input" : 7,
                    "interpolation" : "STEP",
                    "output" : 25
                }
            ]
        },
        {
            "channels" : [
                {
                    "sampler" : 0,
                    "target" : {
                        "node" : 2,
                        "path" : "rotation"
                    }
                },
                {
                    "sampler" : 1,
                    "target" : {
                        "node" : 2,
                        "path" : "translation"
                    }
                },
                {
                    "sampler" : 2,
                    "target" : {
                        "node" : 2,
                        "path" : "scale"
                    }
                },
                {
                    "sampler" : 3,
                    "target" : {
                        "node" : 1,
                        "path" : "rotation"
                    }
                },
                {
                    "sampler" : 4,
                    "target" : {
                        "node" : 1,
                        "path" : "translation"
                    }
                },
                {
                    "sampler" : 5,
                    "target" : {
                        "node" : 1,
                        "path" : "scale"
                    }
                },
                {
                    "sampler" : 6,
                    "target" : {
                        "node" : 0,
                        "path" : "rotation"
                    }
                },
                {
                    "sampler" : 7,
                    "target" : {
                        "node" : 0,
                        "path" : "translation"
                    }
                },
                {
                    "sampler" : 8,
                    "target" : {
                        "node" : 0,
                        "path" : "scale"
                    }
                }
            ],
            "name" : "Spring1",
            "samplers" : [
                {
                    "input" : 7,
                    "interpolation" : "STEP",
                    "output" : 26
                },
                {
                    "input" : 7,
                    "interpolation" : "STEP",
                    "output" : 27
                },
                {
                    "input" : 7,
                    "interpolation" : "STEP",
                    "output" : 28
                },
                {
                    "input" : 7,
                    "interpolation" : "STEP",
                    "output" : 29
                },
                {
                    "input" : 7,
                    "interpolation" : "STEP",
                    "output" : 30
                },
                {
                    "input" : 7,
                    "interpolation" : "STEP",
                    "output" : 31
                },
                {
                    "input" : 7,
                    "interpolation" : "STEP",
                    "output" : 32
                },
                {
                    "input" : 7,
                    "interpolation" : "STEP",
                    "output" : 33
                },
                {
                    "input" : 7,
                    "interpolation" : "STEP",
                    "output" : 34
                }
            ]
        }
    ],
    "meshes" : [
        {
            "name" : "Cube",
            "primitives" : [
                {
                    "attributes" : {
                        "POSITION" : 0,
                        "NORMAL" : 1,
                        "TEXCOORD_0" : 2,
                        "JOINTS_0" : 3,
                        "WEIGHTS_0" : 4
                    },
                    "indices" : 5
                }
            ]
        }
    ],
    "skins" : [
        {
            "inverseBindMatrices" : 6,
            "joints" : [
                2,
                1,
                0
            ],
            "name" : "Armature"
        }
    ],
    "accessors" : [
        {
            "bufferView" : 0,
            "componentType" : 5126,
            "count" : 120,
            "max" : [
                1,
                5.456805229187012,
                1
            ],
            "min" : [
                -1,
                -1,
                -1
            ],
            "type" : "VEC3"
        },
        {
            "bufferView" : 1,
            "componentType" : 5126,
            "count" : 120,
            "type" : "VEC3"
        },
        {
            "bufferView" : 2,
            "componentType" : 5126,
            "count" : 120,
            "type" : "VEC2"
        },
        {
            "bufferView" : 3,
            "componentType" : 5121,
            "count" : 120,
            "type" : "VEC4"
        },
        {
            "bufferView" : 4,
            "componentType" : 5126,
            "count" : 120,
            "type" : "VEC4"
        },
        {
            "bufferView" : 5,
            "componentType" : 5123,
            "count" : 180,
            "type" : "SCALAR"
        },
        {
            "bufferView" : 6,
            "componentType" : 5126,
            "count" : 3,
            "type" : "MAT4"
        },
        {
            "bufferView" : 7,
            "componentType" : 5126,
            "count" : 1,
            "max" : [
                0
            ],
            "min" : [
                0
            ],
            "type" : "SCALAR"
        },
        {
            "bufferView" : 8,
            "componentType" : 5126,
            "count" : 1,
            "type" : "VEC4"
        },
        {
            "bufferView" : 9,
            "componentType" : 5126,
            "count" : 1,
            "type" : "VEC3"
        },
        {
            "bufferView" : 10,
            "componentType" : 5126,
            "count" : 1,
            "type" : "VEC3"
        },
        {
            "bufferView" : 11,
            "componentType" : 5126,
            "count" : 1,
            "type" : "VEC4"
        },
        {
            "bufferView" : 12,
            "componentType" : 5126,
            "count" : 1,
            "type" : "VEC3"
        },
        {
            "bufferView" : 13,
            "componentType" : 5126,
            "count" : 1,
            "type" : "VEC3"
        },
        {
            "bufferView" : 14,
            "componentType" : 5126,
            "count" : 1,
            "type" : "VEC4"
        },
        {
            "bufferView" : 15,
            "componentType" : 5126,
            "count" : 1,
            "type" : "VEC3"
        },
        {
            "bufferView" : 16,
            "componentType" : 5126,
            "count" : 1,
            "type" : "VEC3"
        },
        {
            "bufferView" : 17,
            "componentType" : 5126,
            "count" : 1,
            "type" : "VEC4"
        },
        {
            "bufferView" : 18,
            "componentType" : 5126,
            "count" : 1,
            "type" : "VEC3"
        },
        {
            "bufferView" : 19,
            "componentType" : 5126,
            "count" : 1,
            "type" : "VEC3"
        },
        {
            "bufferView" : 20,
            "componentType" : 5126,
            "count" : 1,
            "type" : "VEC4"
        },
        {
            "bufferView" : 21,
            "componentType" : 5126,
            "count" : 1,
            "type" : "VEC3"
        },
        {
            "bufferView" : 22,
            "componentType" : 5126,
            "count" : 1,
            "type" : "VEC3"
        },
        {
            "bufferView" : 23,
            "componentType" : 5126,
            "count" : 1,
            "type" : "VEC4"
        },
        {
            "bufferView" : 24,
            "componentType" : 5126,
            "count" : 1,
            "type" : "VEC3"
        },
        {
            "bufferView" : 25,
            "componentType" : 5126,
            "count" : 1,
            "type" : "VEC3"
        },
        {
            "bufferView" : 26,
            "componentType" : 5126,
            "count" : 1,
            "type" : "VEC4"
        },
        {
            "bufferView" : 27,
            "componentType" : 5126,
            "count" : 1,
            "type" : "VEC3"
        },
        {
            "bufferView" : 28,
            "componentType" : 5126,
            "count" : 1,
            "type" : "VEC3"
        },
        {
            "bufferView" : 29,
            "componentType" : 5126,
            "count" : 1,
            "type" : "VEC4"
        },
        {
            "bufferView" : 30,
            "componentType" : 5126,
            "count" : 1,
            "type" : "VEC3"
        },
        {
            "bufferView" : 31,
            "componentType" : 5126,
            "count" : 1,
            "type" : "VEC3"
        },
        {
            "bufferView" : 32,
            "componentType" : 5126,
            "count" : 1,
            "type" : "VEC4"
        },
        {
            "bufferView" : 33,
            "componentType" : 5126,
            "count" : 1,
            "type" : "VEC3"
        },
        {
            "bufferView" : 34,
            "componentType" : 5126,
            "count" : 1,
            "type" : "VEC3"
        }
    ],
    "bufferViews" : [
        {
            "buffer" : 0,
            "byteLength" : 1440,
            "byteOffset" : 0,
            "target" : 34962
        },
        {
            "buffer" : 0,
            "byteLength" : 1440,
            "byteOffset" : 1440,
            "target" : 34962
        },
        {
            "buffer" : 0,
            "byteLength" : 960,
            "byteOffset" : 2880,
            "target" : 34962
        },
        {
            "buffer" : 0,
            "byteLength" : 480,
            "byteOffset" : 3840,
            "target" : 34962
        },
        {
            "buffer" : 0,
            "byteLength" : 1920,
            "byteOffset" : 4320,
            "target" : 34962
        },
        {
            "buffer" : 0,
            "byteLength" : 360,
            "byteOffset" : 6240,
            "target" : 34963
        },
        {
            "buffer" : 0,
            "byteLength" : 192,
            "byteOffset" : 6600
        },
        {
            "buffer" : 0,
            "byteLength" : 4,
            "byteOffset" : 6792
        },
        {
            "buffer" : 0,
            "byteLength" : 16,
            "byteOffset" : 6796
        },
        {
            "buffer" : 0,
            "byteLength" : 12,
            "byteOffset" : 6812
        },
        {
            "buffer" : 0,
            "byteLength" : 12,
            "byteOffset" : 6824
        },
        {
            "buffer" : 0,
            "byteLength" : 16,
            "byteOffset" : 6836
        },
        {
            "buffer" : 0,
            "byteLength" : 12,
            "byteOffset" : 6852
        },
        {
            "buffer" : 0,
            "byteLength" : 12,
            "byteOffset" : 6864
        },
        {
            "buffer" : 0,
            "byteLength" : 16,
            "byteOffset" : 6876
        },
        {
            "buffer" : 0,
            "byteLength" : 12,
            "byteOffset" : 6892
        },
        {
            "buffer" : 0,
            "byteLength" : 12,
            "byteOffset" : 6904
        },
        {
            "buffer" : 0,
            "byteLength" : 16,
            "byteOffset" : 6916
        },
        {
            "buffer" : 0,
            "byteLength" : 12,
            "byteOffset" : 6932
        },
        {
            "buffer" : 0,
            "byteLength" : 12,
            "byteOffset" : 6944
        },
        {
            "buffer" : 0,
            "byteLength" : 16,
            "byteOffset" : 6956
        },
        {
            "buffer" : 0,
            "byteLength" : 12,
            "byteOffset" : 6972
        },
        {
            "buffer" : 0,
            "byteLength" : 12,
            "byteOffset" : 6984
        },
        {
            "buffer" : 0,
            "byteLength" : 16,
            "byteOffset" : 6996
        },
        {
            "buffer" : 0,
            "byteLength" : 12,
            "byteOffset" : 7012
        },
        {
            "buffer" : 0,
            "byteLength" : 12,
            "byteOffset" : 7024
        },
        {
            "buffer" : 0,
            "byteLength" : 16,
            "byteOffset" : 7036
        },
        {
            "buffer" : 0,
            "byteLength" : 12,
            "byteOffset" : 7052
        },
        {
            "buffer" : 0,
            "byteLength" : 12,
            "byteOffset" : 7064
        },
        {
            "buffer" : 0,
            "byteLength" : 16,
            "byteOffset" : 7076
        },
        {
            "buffer" : 0,
            "byteLength" : 12,
            "byteOffset" : 7092
        },
        {
            "buffer" : 0,
            "byteLength" : 12,
            "byteOffset" : 7104
        },
        {
            "buffer" : 0,
            "byteLength" : 16,
            "byteOffset" : 7116
        },
        {
            "buffer" : 0,
            "byteLength" : 12,
            "byteOffset" : 7132
        },
        {
            "buffer" : 0,
            "byteLength" : 12,
            "byteOffset" : 7144
        }
    ],
    "buffers" : [
        {
            "byteLength" : 7156,
            "uri" : "AnimationTest.bin"
        }
    ]
}
