{
    "asset" : {
        "generator" : "Khronos glTF Blender I/O v1.8.19",
        "version" : "2.0"
    },
    "scene" : 0,
    "scenes" : [
        {
            "name" : "Scene",
            "nodes" : [
                0
            ]
        }
    ],
    "nodes" : [
        {
            "mesh" : 0,
            "name" : "Chair"
        }
    ],
    "materials" : [
        {
            "doubleSided" : true,
            "name" : "EnemySationaryBody",
            "pbrMetallicRoughness" : {
                "baseColorFactor" : [
                    0.13224133849143982,
                    0.20239953696727753,
                    0.2140285223722458,
                    1
                ],
                "metallicFactor" : 0,
                "roughnessFactor" : 0.8070865869522095
            }
        },
        {
            "doubleSided" : true,
            "name" : "Material.006",
            "pbrMetallicRoughness" : {
                "baseColorFactor" : [
                    0.800000011920929,
                    0.800000011920929,
                    0.800000011920929,
                    1
                ],
                "metallicFactor" : 0,
                "roughnessFactor" : 0.6181102395057678
            }
        }
    ],
    "meshes" : [
        {
            "name" : "Cylinder.009",
            "primitives" : [
                {
                    "attributes" : {
                        "POSITION" : 0,
                        "NORMAL" : 1,
                        "TEXCOORD_0" : 2
                    },
                    "indices" : 3,
                    "material" : 0
                },
                {
                    "attributes" : {
                        "POSITION" : 4,
                        "NORMAL" : 5,
                        "TEXCOORD_0" : 6
                    },
                    "indices" : 7,
                    "material" : 1
                }
            ]
        }
    ],
    "accessors" : [
        {
            "bufferView" : 0,
            "componentType" : 5126,
            "count" : 230,
            "max" : [
                0.3046683967113495,
                1.1398893594741821,
                0.30466845631599426
            ],
            "min" : [
                -0.30466845631599426,
                -0.0014326274394989014,
                -0.35408833622932434
            ],
            "type" : "VEC3"
        },
        {
            "bufferView" : 1,
            "componentType" : 5126,
            "count" : 230,
            "type" : "VEC3"
        },
        {
            "bufferView" : 2,
            "componentType" : 5126,
            "count" : 230,
            "type" : "VEC2"
        },
        {
            "bufferView" : 3,
            "componentType" : 5123,
            "count" : 1122,
            "type" : "SCALAR"
        },
        {
            "bufferView" : 4,
            "componentType" : 5126,
            "count" : 48,
            "max" : [
                0.3046683371067047,
                0.556887686252594,
                0.30466845631599426
            ],
            "min" : [
                -0.30466845631599426,
                0.5290080308914185,
                -0.3046683371067047
            ],
            "type" : "VEC3"
        },
        {
            "bufferView" : 5,
            "componentType" : 5126,
            "count" : 48,
            "type" : "VEC3"
        },
        {
            "bufferView" : 6,
            "componentType" : 5126,
            "count" : 48,
            "type" : "VEC2"
        },
        {
            "bufferView" : 7,
            "componentType" : 5123,
            "count" : 234,
            "type" : "SCALAR"
        }
    ],
    "bufferViews" : [
        {
            "buffer" : 0,
            "byteLength" : 2760,
            "byteOffset" : 0
        },
        {
            "buffer" : 0,
            "byteLength" : 2760,
            "byteOffset" : 2760
        },
        {
            "buffer" : 0,
            "byteLength" : 1840,
            "byteOffset" : 5520
        },
        {
            "buffer" : 0,
            "byteLength" : 2244,
            "byteOffset" : 7360
        },
        {
            "buffer" : 0,
            "byteLength" : 576,
            "byteOffset" : 9604
        },
        {
            "buffer" : 0,
            "byteLength" : 576,
            "byteOffset" : 10180
        },
        {
            "buffer" : 0,
            "byteLength" : 384,
            "byteOffset" : 10756
        },
        {
            "buffer" : 0,
            "byteLength" : 468,
            "byteOffset" : 11140
        }
    ],
    "buffers" : [
        {
            "byteLength" : 11608,
            "uri" : "chair.bin"
        }
    ]
}
