{
    "asset" : {
        "generator" : "Khronos glTF Blender I/O v1.8.19",
        "version" : "2.0"
    },
    "extensionsUsed" : [
        "KHR_materials_transmission"
    ],
    "scene" : 0,
    "scenes" : [
        {
            "name" : "Scene",
            "nodes" : [
                0,
                1
            ]
        }
    ],
    "nodes" : [
        {
            "mesh" : 0,
            "name" : "DoorFrame"
        },
        {
            "mesh" : 1,
            "name" : "Door"
        }
    ],
    "materials" : [
        {
            "doubleSided" : true,
            "name" : "Material.022",
            "pbrMetallicRoughness" : {
                "baseColorFactor" : [
                    0.42460548877716064,
                    0.42460548877716064,
                    0.42460548877716064,
                    1
                ],
                "roughnessFactor" : 0.35039371252059937
            }
        },
        {
            "doubleSided" : true,
            "name" : "Material.021",
            "pbrMetallicRoughness" : {
                "baseColorFactor" : [
                    0.059492528438568115,
                    0.2518920302391052,
                    0.5382227897644043,
                    1
                ],
                "roughnessFactor" : 0.5
            }
        },
        {
            "alphaMode" : "BLEND",
            "doubleSided" : true,
            "extensions" : {
                "KHR_materials_transmission" : {
                    "transmissionFactor" : 1
                }
            },
            "name" : "Material.014",
            "pbrMetallicRoughness" : {
                "baseColorFactor" : [
                    0.800000011920929,
                    0.800000011920929,
                    0.800000011920929,
                    1
                ],
                "metallicFactor" : 0,
                "roughnessFactor" : 0.5
            }
        }
    ],
    "meshes" : [
        {
            "name" : "Cube.006",
            "primitives" : [
                {
                    "attributes" : {
                        "POSITION" : 0,
                        "NORMAL" : 1,
                        "TEXCOORD_0" : 2
                    },
                    "indices" : 3,
                    "material" : 0
                }
            ]
        },
        {
            "name" : "Cube.003",
            "primitives" : [
                {
                    "attributes" : {
                        "POSITION" : 4,
                        "NORMAL" : 5,
                        "TEXCOORD_0" : 6
                    },
                    "indices" : 7,
                    "material" : 1
                },
                {
                    "attributes" : {
                        "POSITION" : 8,
                        "NORMAL" : 9,
                        "TEXCOORD_0" : 10
                    },
                    "indices" : 11,
                    "material" : 2
                },
                {
                    "attributes" : {
                        "POSITION" : 12,
                        "NORMAL" : 13,
                        "TEXCOORD_0" : 14
                    },
                    "indices" : 15,
                    "material" : 0
                }
            ]
        }
    ],
    "accessors" : [
        {
            "bufferView" : 0,
            "componentType" : 5126,
            "count" : 132,
            "max" : [
                2.080556869506836,
                2.968371629714966,
                0.3080078661441803
            ],
            "min" : [
                -0.23765282332897186,
                -0.20014140009880066,
                -0.30801093578338623
            ],
            "type" : "VEC3"
        },
        {
            "bufferView" : 1,
            "componentType" : 5126,
            "count" : 132,
            "type" : "VEC3"
        },
        {
            "bufferView" : 2,
            "componentType" : 5126,
            "count" : 132,
            "type" : "VEC2"
        },
        {
            "bufferView" : 3,
            "componentType" : 5123,
            "count" : 216,
            "type" : "SCALAR"
        },
        {
            "bufferView" : 4,
            "componentType" : 5126,
            "count" : 126,
            "max" : [
                2.080556869506836,
                2.7717626094818115,
                0.05966077744960785
            ],
            "min" : [
                0.00045117735862731934,
                -0.0017116982489824295,
                -0.05966077744960785
            ],
            "type" : "VEC3"
        },
        {
            "bufferView" : 5,
            "componentType" : 5126,
            "count" : 126,
            "type" : "VEC3"
        },
        {
            "bufferView" : 6,
            "componentType" : 5126,
            "count" : 126,
            "type" : "VEC2"
        },
        {
            "bufferView" : 7,
            "componentType" : 5123,
            "count" : 240,
            "type" : "SCALAR"
        },
        {
            "bufferView" : 8,
            "componentType" : 5126,
            "count" : 8,
            "max" : [
                1.8314158916473389,
                2.605668783187866,
                0
            ],
            "min" : [
                0.24959224462509155,
                0.7747491002082825,
                0
            ],
            "type" : "VEC3"
        },
        {
            "bufferView" : 9,
            "componentType" : 5126,
            "count" : 8,
            "type" : "VEC3"
        },
        {
            "bufferView" : 10,
            "componentType" : 5126,
            "count" : 8,
            "type" : "VEC2"
        },
        {
            "bufferView" : 11,
            "componentType" : 5123,
            "count" : 12,
            "type" : "SCALAR"
        },
        {
            "bufferView" : 12,
            "componentType" : 5126,
            "count" : 40,
            "max" : [
                2.080556869506836,
                0.6819540858268738,
                0.05966077744960785
            ],
            "min" : [
                0.00045114755630493164,
                -0.0017116982489824295,
                -0.05966077744960785
            ],
            "type" : "VEC3"
        },
        {
            "bufferView" : 13,
            "componentType" : 5126,
            "count" : 40,
            "type" : "VEC3"
        },
        {
            "bufferView" : 14,
            "componentType" : 5126,
            "count" : 40,
            "type" : "VEC2"
        },
        {
            "bufferView" : 15,
            "componentType" : 5123,
            "count" : 60,
            "type" : "SCALAR"
        }
    ],
    "bufferViews" : [
        {
            "buffer" : 0,
            "byteLength" : 1584,
            "byteOffset" : 0
        },
        {
            "buffer" : 0,
            "byteLength" : 1584,
            "byteOffset" : 1584
        },
        {
            "buffer" : 0,
            "byteLength" : 1056,
            "byteOffset" : 3168
        },
        {
            "buffer" : 0,
            "byteLength" : 432,
            "byteOffset" : 4224
        },
        {
            "buffer" : 0,
            "byteLength" : 1512,
            "byteOffset" : 4656
        },
        {
            "buffer" : 0,
            "byteLength" : 1512,
            "byteOffset" : 6168
        },
        {
            "buffer" : 0,
            "byteLength" : 1008,
            "byteOffset" : 7680
        },
        {
            "buffer" : 0,
            "byteLength" : 480,
            "byteOffset" : 8688
        },
        {
            "buffer" : 0,
            "byteLength" : 96,
            "byteOffset" : 9168
        },
        {
            "buffer" : 0,
            "byteLength" : 96,
            "byteOffset" : 9264
        },
        {
            "buffer" : 0,
            "byteLength" : 64,
            "byteOffset" : 9360
        },
        {
            "buffer" : 0,
            "byteLength" : 24,
            "byteOffset" : 9424
        },
        {
            "buffer" : 0,
            "byteLength" : 480,
            "byteOffset" : 9448
        },
        {
            "buffer" : 0,
            "byteLength" : 480,
            "byteOffset" : 9928
        },
        {
            "buffer" : 0,
            "byteLength" : 320,
            "byteOffset" : 10408
        },
        {
            "buffer" : 0,
            "byteLength" : 120,
            "byteOffset" : 10728
        }
    ],
    "buffers" : [
        {
            "byteLength" : 10848,
            "uri" : "Door.bin"
        }
    ]
}
