{
    "asset" : {
        "generator" : "Khronos glTF Blender I/O v1.8.19",
        "version" : "2.0"
    },
    "scene" : 0,
    "scenes" : [
        {
            "name" : "Scene",
            "nodes" : [
                3
            ]
        }
    ],
    "nodes" : [
        {
            "mesh" : 0,
            "name" : "EnemyChargerEye"
        },
        {
            "mesh" : 1,
            "name" : "EnemyChargerNeedle",
            "translation" : [
                -0.024480599910020828,
                0,
                0
            ]
        },
        {
            "mesh" : 2,
            "name" : "EnemyChargerWheel"
        },
        {
            "children" : [
                0,
                1,
                2
            ],
            "mesh" : 3,
            "name" : "EnemyChargerBase"
        }
    ],
    "materials" : [
        {
            "doubleSided" : true,
            "name" : "Key",
            "pbrMetallicRoughness" : {
                "baseColorFactor" : [
                    0.6343494653701782,
                    0.45551976561546326,
                    0.0909661129117012,
                    1
                ],
                "roughnessFactor" : 0.6000000238418579
            }
        },
        {
            "doubleSided" : true,
            "name" : "Material.006",
            "pbrMetallicRoughness" : {
                "baseColorFactor" : [
                    0.7642737030982971,
                    0.7294957041740417,
                    0.8000000715255737,
                    1
                ],
                "metallicFactor" : 0,
                "roughnessFactor" : 0.16535432636737823
            }
        },
        {
            "doubleSided" : true,
            "name" : "Material.015",
            "pbrMetallicRoughness" : {
                "baseColorFactor" : [
                    0.022530246526002884,
                    0.8000000715255737,
                    0.23221254348754883,
                    1
                ],
                "metallicFactor" : 0,
                "roughnessFactor" : 0.5
            }
        },
        {
            "doubleSided" : true,
            "name" : "Trashbag",
            "pbrMetallicRoughness" : {
                "baseColorFactor" : [
                    0.018848661333322525,
                    0.018848661333322525,
                    0.018848661333322525,
                    1
                ],
                "metallicFactor" : 0,
                "roughnessFactor" : 0.16141732037067413
            }
        },
        {
            "doubleSided" : true,
            "name" : "Material.007",
            "pbrMetallicRoughness" : {
                "baseColorFactor" : [
                    0.44797849655151367,
                    0.036711592227220535,
                    0.02590673230588436,
                    1
                ],
                "roughnessFactor" : 0.5
            }
        }
    ],
    "meshes" : [
        {
            "name" : "Cylinder.006",
            "primitives" : [
                {
                    "attributes" : {
                        "POSITION" : 0,
                        "NORMAL" : 1,
                        "TEXCOORD_0" : 2
                    },
                    "indices" : 3,
                    "material" : 0
                }
            ]
        },
        {
            "name" : "Cylinder.005",
            "primitives" : [
                {
                    "attributes" : {
                        "POSITION" : 4,
                        "NORMAL" : 5,
                        "TEXCOORD_0" : 6
                    },
                    "indices" : 7,
                    "material" : 1
                },
                {
                    "attributes" : {
                        "POSITION" : 8,
                        "NORMAL" : 9,
                        "TEXCOORD_0" : 10
                    },
                    "indices" : 11,
                    "material" : 2
                }
            ]
        },
        {
            "name" : "Cylinder.004",
            "primitives" : [
                {
                    "attributes" : {
                        "POSITION" : 12,
                        "NORMAL" : 13,
                        "TEXCOORD_0" : 14
                    },
                    "indices" : 15,
                    "material" : 3
                }
            ]
        },
        {
            "name" : "Cube.002",
            "primitives" : [
                {
                    "attributes" : {
                        "POSITION" : 16,
                        "NORMAL" : 17,
                        "TEXCOORD_0" : 18
                    },
                    "indices" : 19,
                    "material" : 4
                }
            ]
        }
    ],
    "accessors" : [
        {
            "bufferView" : 0,
            "componentType" : 5126,
            "count" : 99,
            "max" : [
                0.16889967024326324,
                1.3232231140136719,
                0.4234545826911926
            ],
            "min" : [
                -0.19107425212860107,
                0.9344052672386169,
                0.1754554659128189
            ],
            "type" : "VEC3"
        },
        {
            "bufferView" : 1,
            "componentType" : 5126,
            "count" : 99,
            "type" : "VEC3"
        },
        {
            "bufferView" : 2,
            "componentType" : 5126,
            "count" : 99,
            "type" : "VEC2"
        },
        {
            "bufferView" : 3,
            "componentType" : 5123,
            "count" : 372,
            "type" : "SCALAR"
        },
        {
            "bufferView" : 4,
            "componentType" : 5126,
            "count" : 327,
            "max" : [
                -0.35932865738868713,
                1.0262748003005981,
                1.426127552986145
            ],
            "min" : [
                -0.7697614431381226,
                0.6719946265220642,
                -0.48739317059516907
            ],
            "type" : "VEC3"
        },
        {
            "bufferView" : 5,
            "componentType" : 5126,
            "count" : 327,
            "type" : "VEC3"
        },
        {
            "bufferView" : 6,
            "componentType" : 5126,
            "count" : 327,
            "type" : "VEC2"
        },
        {
            "bufferView" : 7,
            "componentType" : 5123,
            "count" : 1674,
            "type" : "SCALAR"
        },
        {
            "bufferView" : 8,
            "componentType" : 5126,
            "count" : 276,
            "max" : [
                -0.2636898458003998,
                0.9976162910461426,
                1.0884779691696167
            ],
            "min" : [
                -0.7380732893943787,
                0.700653076171875,
                -0.601024866104126
            ],
            "type" : "VEC3"
        },
        {
            "bufferView" : 9,
            "componentType" : 5126,
            "count" : 276,
            "type" : "VEC3"
        },
        {
            "bufferView" : 10,
            "componentType" : 5126,
            "count" : 276,
            "type" : "VEC2"
        },
        {
            "bufferView" : 11,
            "componentType" : 5123,
            "count" : 1386,
            "type" : "SCALAR"
        },
        {
            "bufferView" : 12,
            "componentType" : 5126,
            "count" : 228,
            "max" : [
                0.20810724794864655,
                0.7507510781288147,
                0.37537553906440735
            ],
            "min" : [
                -0.20810724794864655,
                0,
                -0.37537553906440735
            ],
            "type" : "VEC3"
        },
        {
            "bufferView" : 13,
            "componentType" : 5126,
            "count" : 228,
            "type" : "VEC3"
        },
        {
            "bufferView" : 14,
            "componentType" : 5126,
            "count" : 228,
            "type" : "VEC2"
        },
        {
            "bufferView" : 15,
            "componentType" : 5123,
            "count" : 1152,
            "type" : "SCALAR"
        },
        {
            "bufferView" : 16,
            "componentType" : 5126,
            "count" : 249,
            "max" : [
                0.351290762424469,
                1.4650260210037231,
                0.43060094118118286
            ],
            "min" : [
                -0.35619109869003296,
                0.326225221157074,
                -0.4130196273326874
            ],
            "type" : "VEC3"
        },
        {
            "bufferView" : 17,
            "componentType" : 5126,
            "count" : 249,
            "type" : "VEC3"
        },
        {
            "bufferView" : 18,
            "componentType" : 5126,
            "count" : 249,
            "type" : "VEC2"
        },
        {
            "bufferView" : 19,
            "componentType" : 5123,
            "count" : 408,
            "type" : "SCALAR"
        }
    ],
    "bufferViews" : [
        {
            "buffer" : 0,
            "byteLength" : 1188,
            "byteOffset" : 0
        },
        {
            "buffer" : 0,
            "byteLength" : 1188,
            "byteOffset" : 1188
        },
        {
            "buffer" : 0,
            "byteLength" : 792,
            "byteOffset" : 2376
        },
        {
            "buffer" : 0,
            "byteLength" : 744,
            "byteOffset" : 3168
        },
        {
            "buffer" : 0,
            "byteLength" : 3924,
            "byteOffset" : 3912
        },
        {
            "buffer" : 0,
            "byteLength" : 3924,
            "byteOffset" : 7836
        },
        {
            "buffer" : 0,
            "byteLength" : 2616,
            "byteOffset" : 11760
        },
        {
            "buffer" : 0,
            "byteLength" : 3348,
            "byteOffset" : 14376
        },
        {
            "buffer" : 0,
            "byteLength" : 3312,
            "byteOffset" : 17724
        },
        {
            "buffer" : 0,
            "byteLength" : 3312,
            "byteOffset" : 21036
        },
        {
            "buffer" : 0,
            "byteLength" : 2208,
            "byteOffset" : 24348
        },
        {
            "buffer" : 0,
            "byteLength" : 2772,
            "byteOffset" : 26556
        },
        {
            "buffer" : 0,
            "byteLength" : 2736,
            "byteOffset" : 29328
        },
        {
            "buffer" : 0,
            "byteLength" : 2736,
            "byteOffset" : 32064
        },
        {
            "buffer" : 0,
            "byteLength" : 1824,
            "byteOffset" : 34800
        },
        {
            "buffer" : 0,
            "byteLength" : 2304,
            "byteOffset" : 36624
        },
        {
            "buffer" : 0,
            "byteLength" : 2988,
            "byteOffset" : 38928
        },
        {
            "buffer" : 0,
            "byteLength" : 2988,
            "byteOffset" : 41916
        },
        {
            "buffer" : 0,
            "byteLength" : 1992,
            "byteOffset" : 44904
        },
        {
            "buffer" : 0,
            "byteLength" : 816,
            "byteOffset" : 46896
        }
    ],
    "buffers" : [
        {
            "byteLength" : 47712,
            "uri" : "EnemyCharge.bin"
        }
    ]
}
