{
    "asset" : {
        "generator" : "Khronos glTF Blender I/O v1.8.19",
        "version" : "2.0"
    },
    "scene" : 0,
    "scenes" : [
        {
            "name" : "Scene",
            "nodes" : [
                5
            ]
        }
    ],
    "nodes" : [
        {
            "mesh" : 0,
            "name" : "EnemySationaryHat"
        },
        {
            "mesh" : 1,
            "name" : "EnenmyStationaryCannon"
        },
        {
            "mesh" : 2,
            "name" : "EnenmyStationaryEyeBrows"
        },
        {
            "mesh" : 3,
            "name" : "EnenmyStationaryEyes"
        },
        {
            "mesh" : 4,
            "name" : "EnenmyStationaryHead"
        },
        {
            "children" : [
                0,
                1,
                2,
                3,
                4
            ],
            "mesh" : 5,
            "name" : "EnenmyStationaryBottom"
        }
    ],
    "materials" : [
        {
            "doubleSided" : true,
            "name" : "Material.015",
            "pbrMetallicRoughness" : {
                "baseColorFactor" : [
                    0.022530246526002884,
                    0.8000000715255737,
                    0.23221254348754883,
                    1
                ],
                "metallicFactor" : 0,
                "roughnessFactor" : 0.5
            }
        },
        {
            "doubleSided" : true,
            "name" : "Key",
            "pbrMetallicRoughness" : {
                "baseColorFactor" : [
                    0.6343494653701782,
                    0.45551976561546326,
                    0.0909661129117012,
                    1
                ],
                "roughnessFactor" : 0.6000000238418579
            }
        },
        {
            "doubleSided" : true,
            "name" : "EnemySationaryBody",
            "pbrMetallicRoughness" : {
                "baseColorFactor" : [
                    0.13224133849143982,
                    0.20239953696727753,
                    0.2140285223722458,
                    1
                ],
                "roughnessFactor" : 0.8070865869522095
            }
        }
    ],
    "meshes" : [
        {
            "name" : "Cylinder.007",
            "primitives" : [
                {
                    "attributes" : {
                        "POSITION" : 0,
                        "NORMAL" : 1,
                        "TEXCOORD_0" : 2
                    },
                    "indices" : 3,
                    "material" : 0
                }
            ]
        },
        {
            "name" : "Cylinder.001",
            "primitives" : [
                {
                    "attributes" : {
                        "POSITION" : 4,
                        "NORMAL" : 5,
                        "TEXCOORD_0" : 6
                    },
                    "indices" : 7,
                    "material" : 1
                }
            ]
        },
        {
            "name" : "Cube.004",
            "primitives" : [
                {
                    "attributes" : {
                        "POSITION" : 8,
                        "NORMAL" : 9,
                        "TEXCOORD_0" : 10
                    },
                    "indices" : 11,
                    "material" : 1
                }
            ]
        },
        {
            "name" : "Cylinder.003",
            "primitives" : [
                {
                    "attributes" : {
                        "POSITION" : 12,
                        "NORMAL" : 13,
                        "TEXCOORD_0" : 14
                    },
                    "indices" : 15,
                    "material" : 1
                }
            ]
        },
        {
            "name" : "Cube.001",
            "primitives" : [
                {
                    "attributes" : {
                        "POSITION" : 16,
                        "NORMAL" : 17,
                        "TEXCOORD_0" : 18
                    },
                    "indices" : 19,
                    "material" : 1
                },
                {
                    "attributes" : {
                        "POSITION" : 20,
                        "NORMAL" : 21,
                        "TEXCOORD_0" : 22
                    },
                    "indices" : 23,
                    "material" : 2
                }
            ]
        },
        {
            "name" : "Cylinder",
            "primitives" : [
                {
                    "attributes" : {
                        "POSITION" : 24,
                        "NORMAL" : 25,
                        "TEXCOORD_0" : 26
                    },
                    "indices" : 27,
                    "material" : 1
                }
            ]
        }
    ],
    "accessors" : [
        {
            "bufferView" : 0,
            "componentType" : 5126,
            "count" : 116,
            "max" : [
                0.3497762680053711,
                1.8044939041137695,
                0.3497762680053711
            ],
            "min" : [
                -0.3497762680053711,
                1.104941487312317,
                -0.3497762680053711
            ],
            "type" : "VEC3"
        },
        {
            "bufferView" : 1,
            "componentType" : 5126,
            "count" : 116,
            "type" : "VEC3"
        },
        {
            "bufferView" : 2,
            "componentType" : 5126,
            "count" : 116,
            "type" : "VEC2"
        },
        {
            "bufferView" : 3,
            "componentType" : 5123,
            "count" : 468,
            "type" : "SCALAR"
        },
        {
            "bufferView" : 4,
            "componentType" : 5126,
            "count" : 212,
            "max" : [
                0.08104650676250458,
                0.6717244386672974,
                0.4482018053531647
            ],
            "min" : [
                -0.08104652911424637,
                0.5096313953399658,
                0.13274508714675903
            ],
            "type" : "VEC3"
        },
        {
            "bufferView" : 5,
            "componentType" : 5126,
            "count" : 212,
            "type" : "VEC3"
        },
        {
            "bufferView" : 6,
            "componentType" : 5126,
            "count" : 212,
            "type" : "VEC2"
        },
        {
            "bufferView" : 7,
            "componentType" : 5123,
            "count" : 1044,
            "type" : "SCALAR"
        },
        {
            "bufferView" : 8,
            "componentType" : 5126,
            "count" : 24,
            "max" : [
                -0.011864961124956608,
                1.0585969686508179,
                0.39462152123451233
            ],
            "min" : [
                -0.33310723304748535,
                0.8216544389724731,
                0.36703041195869446
            ],
            "type" : "VEC3"
        },
        {
            "bufferView" : 9,
            "componentType" : 5126,
            "count" : 24,
            "type" : "VEC3"
        },
        {
            "bufferView" : 10,
            "componentType" : 5126,
            "count" : 24,
            "type" : "VEC2"
        },
        {
            "bufferView" : 11,
            "componentType" : 5123,
            "count" : 36,
            "type" : "SCALAR"
        },
        {
            "bufferView" : 12,
            "componentType" : 5126,
            "count" : 116,
            "max" : [
                -0.08419385552406311,
                0.9421615600585938,
                0.3712797164916992
            ],
            "min" : [
                -0.28617748618125916,
                0.7293044328689575,
                0.2551863491535187
            ],
            "type" : "VEC3"
        },
        {
            "bufferView" : 13,
            "componentType" : 5126,
            "count" : 116,
            "type" : "VEC3"
        },
        {
            "bufferView" : 14,
            "componentType" : 5126,
            "count" : 116,
            "type" : "VEC2"
        },
        {
            "bufferView" : 15,
            "componentType" : 5123,
            "count" : 468,
            "type" : "SCALAR"
        },
        {
            "bufferView" : 16,
            "componentType" : 5126,
            "count" : 52,
            "max" : [
                0.4668172299861908,
                1.1845581531524658,
                0.4668172299861908
            ],
            "min" : [
                -0.4668172299861908,
                1.0138146877288818,
                -0.4668172299861908
            ],
            "type" : "VEC3"
        },
        {
            "bufferView" : 17,
            "componentType" : 5126,
            "count" : 52,
            "type" : "VEC3"
        },
        {
            "bufferView" : 18,
            "componentType" : 5126,
            "count" : 52,
            "type" : "VEC2"
        },
        {
            "bufferView" : 19,
            "componentType" : 5123,
            "count" : 78,
            "type" : "SCALAR"
        },
        {
            "bufferView" : 20,
            "componentType" : 5126,
            "count" : 20,
            "max" : [
                0.3624742329120636,
                1.0165760517120361,
                0.3624742329120636
            ],
            "min" : [
                -0.3624742329120636,
                0.451252281665802,
                -0.3624742329120636
            ],
            "type" : "VEC3"
        },
        {
            "bufferView" : 21,
            "componentType" : 5126,
            "count" : 20,
            "type" : "VEC3"
        },
        {
            "bufferView" : 22,
            "componentType" : 5126,
            "count" : 20,
            "type" : "VEC2"
        },
        {
            "bufferView" : 23,
            "componentType" : 5123,
            "count" : 30,
            "type" : "SCALAR"
        },
        {
            "bufferView" : 24,
            "componentType" : 5126,
            "count" : 212,
            "max" : [
                0.2887909710407257,
                0.5467531681060791,
                0.2887909710407257
            ],
            "min" : [
                -0.2887909710407257,
                0,
                -0.2887909710407257
            ],
            "type" : "VEC3"
        },
        {
            "bufferView" : 25,
            "componentType" : 5126,
            "count" : 212,
            "type" : "VEC3"
        },
        {
            "bufferView" : 26,
            "componentType" : 5126,
            "count" : 212,
            "type" : "VEC2"
        },
        {
            "bufferView" : 27,
            "componentType" : 5123,
            "count" : 1044,
            "type" : "SCALAR"
        }
    ],
    "bufferViews" : [
        {
            "buffer" : 0,
            "byteLength" : 1392,
            "byteOffset" : 0
        },
        {
            "buffer" : 0,
            "byteLength" : 1392,
            "byteOffset" : 1392
        },
        {
            "buffer" : 0,
            "byteLength" : 928,
            "byteOffset" : 2784
        },
        {
            "buffer" : 0,
            "byteLength" : 936,
            "byteOffset" : 3712
        },
        {
            "buffer" : 0,
            "byteLength" : 2544,
            "byteOffset" : 4648
        },
        {
            "buffer" : 0,
            "byteLength" : 2544,
            "byteOffset" : 7192
        },
        {
            "buffer" : 0,
            "byteLength" : 1696,
            "byteOffset" : 9736
        },
        {
            "buffer" : 0,
            "byteLength" : 2088,
            "byteOffset" : 11432
        },
        {
            "buffer" : 0,
            "byteLength" : 288,
            "byteOffset" : 13520
        },
        {
            "buffer" : 0,
            "byteLength" : 288,
            "byteOffset" : 13808
        },
        {
            "buffer" : 0,
            "byteLength" : 192,
            "byteOffset" : 14096
        },
        {
            "buffer" : 0,
            "byteLength" : 72,
            "byteOffset" : 14288
        },
        {
            "buffer" : 0,
            "byteLength" : 1392,
            "byteOffset" : 14360
        },
        {
            "buffer" : 0,
            "byteLength" : 1392,
            "byteOffset" : 15752
        },
        {
            "buffer" : 0,
            "byteLength" : 928,
            "byteOffset" : 17144
        },
        {
            "buffer" : 0,
            "byteLength" : 936,
            "byteOffset" : 18072
        },
        {
            "buffer" : 0,
            "byteLength" : 624,
            "byteOffset" : 19008
        },
        {
            "buffer" : 0,
            "byteLength" : 624,
            "byteOffset" : 19632
        },
        {
            "buffer" : 0,
            "byteLength" : 416,
            "byteOffset" : 20256
        },
        {
            "buffer" : 0,
            "byteLength" : 156,
            "byteOffset" : 20672
        },
        {
            "buffer" : 0,
            "byteLength" : 240,
            "byteOffset" : 20828
        },
        {
            "buffer" : 0,
            "byteLength" : 240,
            "byteOffset" : 21068
        },
        {
            "buffer" : 0,
            "byteLength" : 160,
            "byteOffset" : 21308
        },
        {
            "buffer" : 0,
            "byteLength" : 60,
            "byteOffset" : 21468
        },
        {
            "buffer" : 0,
            "byteLength" : 2544,
            "byteOffset" : 21528
        },
        {
            "buffer" : 0,
            "byteLength" : 2544,
            "byteOffset" : 24072
        },
        {
            "buffer" : 0,
            "byteLength" : 1696,
            "byteOffset" : 26616
        },
        {
            "buffer" : 0,
            "byteLength" : 2088,
            "byteOffset" : 28312
        }
    ],
    "buffers" : [
        {
            "byteLength" : 30400,
            "uri" : "EnemyStationary.bin"
        }
    ]
}
