{
    "asset" : {
        "generator" : "Khronos glTF Blender I/O v1.8.19",
        "version" : "2.0"
    },
    "scene" : 0,
    "scenes" : [
        {
            "name" : "Scene",
            "nodes" : [
                0
            ]
        }
    ],
    "nodes" : [
        {
            "mesh" : 0,
            "name" : "Explosive"
        }
    ],
    "materials" : [
        {
            "doubleSided" : true,
            "name" : "explosive_barrel_grey_metallic",
            "pbrMetallicRoughness" : {
                "baseColorFactor" : [
                    0.42460548877716064,
                    0.42460548877716064,
                    0.42460548877716064,
                    1
                ],
                "roughnessFactor" : 0.35039371252059937
            }
        },
        {
            "doubleSided" : true,
            "name" : "explosive_barrel_red_metallic",
            "pbrMetallicRoughness" : {
                "baseColorFactor" : [
                    0.44797849655151367,
                    0.036711592227220535,
                    0.02590673230588436,
                    1
                ],
                "roughnessFactor" : 0.5
            }
        },
        {
            "doubleSided" : true,
            "name" : "explosive_barrel_icon",
            "pbrMetallicRoughness" : {
                "baseColorTexture" : {
                    "index" : 0
                },
                "roughnessFactor" : 0.5
            }
        }
    ],
    "meshes" : [
        {
            "name" : "Cylinder.014",
            "primitives" : [
                {
                    "attributes" : {
                        "POSITION" : 0,
                        "NORMAL" : 1,
                        "TEXCOORD_0" : 2
                    },
                    "indices" : 3,
                    "material" : 0
                },
                {
                    "attributes" : {
                        "POSITION" : 4,
                        "NORMAL" : 5,
                        "TEXCOORD_0" : 6
                    },
                    "indices" : 7,
                    "material" : 1
                },
                {
                    "attributes" : {
                        "POSITION" : 8,
                        "NORMAL" : 9,
                        "TEXCOORD_0" : 10
                    },
                    "indices" : 11,
                    "material" : 2
                }
            ]
        }
    ],
    "textures" : [
        {
            "sampler" : 0,
            "source" : 0
        }
    ],
    "images" : [
        {
            "mimeType" : "image/png",
            "name" : "explosive",
            "uri" : "explosive.png"
        }
    ],
    "accessors" : [
        {
            "bufferView" : 0,
            "componentType" : 5126,
            "count" : 305,
            "max" : [
                1.0488321781158447,
                3.0634491443634033,
                1.0488321781158447
            ],
            "min" : [
                -1.0488321781158447,
                0,
                -1.0488321781158447
            ],
            "type" : "VEC3"
        },
        {
            "bufferView" : 1,
            "componentType" : 5126,
            "count" : 305,
            "type" : "VEC3"
        },
        {
            "bufferView" : 2,
            "componentType" : 5126,
            "count" : 305,
            "type" : "VEC2"
        },
        {
            "bufferView" : 3,
            "componentType" : 5123,
            "count" : 1386,
            "type" : "SCALAR"
        },
        {
            "bufferView" : 4,
            "componentType" : 5126,
            "count" : 100,
            "max" : [
                1,
                3.033604621887207,
                1
            ],
            "min" : [
                -1,
                0,
                -1
            ],
            "type" : "VEC3"
        },
        {
            "bufferView" : 5,
            "componentType" : 5126,
            "count" : 100,
            "type" : "VEC3"
        },
        {
            "bufferView" : 6,
            "componentType" : 5126,
            "count" : 100,
            "type" : "VEC2"
        },
        {
            "bufferView" : 7,
            "componentType" : 5123,
            "count" : 234,
            "type" : "SCALAR"
        },
        {
            "bufferView" : 8,
            "componentType" : 5126,
            "count" : 34,
            "max" : [
                1,
                2.081852912902832,
                1
            ],
            "min" : [
                -1,
                0.9554662704467773,
                -1
            ],
            "type" : "VEC3"
        },
        {
            "bufferView" : 9,
            "componentType" : 5126,
            "count" : 34,
            "type" : "VEC3"
        },
        {
            "bufferView" : 10,
            "componentType" : 5126,
            "count" : 34,
            "type" : "VEC2"
        },
        {
            "bufferView" : 11,
            "componentType" : 5123,
            "count" : 96,
            "type" : "SCALAR"
        }
    ],
    "bufferViews" : [
        {
            "buffer" : 0,
            "byteLength" : 3660,
            "byteOffset" : 0
        },
        {
            "buffer" : 0,
            "byteLength" : 3660,
            "byteOffset" : 3660
        },
        {
            "buffer" : 0,
            "byteLength" : 2440,
            "byteOffset" : 7320
        },
        {
            "buffer" : 0,
            "byteLength" : 2772,
            "byteOffset" : 9760
        },
        {
            "buffer" : 0,
            "byteLength" : 1200,
            "byteOffset" : 12532
        },
        {
            "buffer" : 0,
            "byteLength" : 1200,
            "byteOffset" : 13732
        },
        {
            "buffer" : 0,
            "byteLength" : 800,
            "byteOffset" : 14932
        },
        {
            "buffer" : 0,
            "byteLength" : 468,
            "byteOffset" : 15732
        },
        {
            "buffer" : 0,
            "byteLength" : 408,
            "byteOffset" : 16200
        },
        {
            "buffer" : 0,
            "byteLength" : 408,
            "byteOffset" : 16608
        },
        {
            "buffer" : 0,
            "byteLength" : 272,
            "byteOffset" : 17016
        },
        {
            "buffer" : 0,
            "byteLength" : 192,
            "byteOffset" : 17288
        }
    ],
    "samplers" : [
        {
            "magFilter" : 9729,
            "minFilter" : 9987
        }
    ],
    "buffers" : [
        {
            "byteLength" : 17480,
            "uri" : "Explosvie.bin"
        }
    ]
}
