{
    "asset" : {
        "generator" : "Khronos glTF Blender I/O v1.8.19",
        "version" : "2.0"
    },
    "scene" : 0,
    "scenes" : [
        {
            "name" : "Scene",
            "nodes" : [
                1
            ]
        }
    ],
    "nodes" : [
        {
            "mesh" : 0,
            "name" : "Flagy"
        },
        {
            "children" : [
                0
            ],
            "mesh" : 1,
            "name" : "Flag"
        }
    ],
    "meshes" : [
        {
            "name" : "Cylinder.002",
            "primitives" : [
                {
                    "attributes" : {
                        "POSITION" : 0,
                        "NORMAL" : 1,
                        "TEXCOORD_0" : 2
                    },
                    "indices" : 3
                }
            ]
        },
        {
            "name" : "Plane.002",
            "primitives" : [
                {
                    "attributes" : {
                        "POSITION" : 4,
                        "NORMAL" : 5,
                        "TEXCOORD_0" : 6
                    },
                    "indices" : 7
                }
            ]
        }
    ],
    "accessors" : [
        {
            "bufferView" : 0,
            "componentType" : 5126,
            "count" : 34,
            "max" : [
                0.053178250789642334,
                3.0758848190307617,
                0.06658077239990234
            ],
            "min" : [
                -0.05139881372451782,
                -0.00024950504302978516,
                -0.03799629211425781
            ],
            "type" : "VEC3"
        },
        {
            "bufferView" : 1,
            "componentType" : 5126,
            "count" : 34,
            "type" : "VEC3"
        },
        {
            "bufferView" : 2,
            "componentType" : 5126,
            "count" : 34,
            "type" : "VEC2"
        },
        {
            "bufferView" : 3,
            "componentType" : 5123,
            "count" : 84,
            "type" : "SCALAR"
        },
        {
            "bufferView" : 4,
            "componentType" : 5126,
            "count" : 57,
            "max" : [
                2.943256378173828,
                3.1152844429016113,
                0.26277416944503784
            ],
            "min" : [
                -0.04630999639630318,
                1.1152843236923218,
                -0.3765741288661957
            ],
            "type" : "VEC3"
        },
        {
            "bufferView" : 5,
            "componentType" : 5126,
            "count" : 57,
            "type" : "VEC3"
        },
        {
            "bufferView" : 6,
            "componentType" : 5126,
            "count" : 57,
            "type" : "VEC2"
        },
        {
            "bufferView" : 7,
            "componentType" : 5123,
            "count" : 216,
            "type" : "SCALAR"
        }
    ],
    "bufferViews" : [
        {
            "buffer" : 0,
            "byteLength" : 408,
            "byteOffset" : 0
        },
        {
            "buffer" : 0,
            "byteLength" : 408,
            "byteOffset" : 408
        },
        {
            "buffer" : 0,
            "byteLength" : 272,
            "byteOffset" : 816
        },
        {
            "buffer" : 0,
            "byteLength" : 168,
            "byteOffset" : 1088
        },
        {
            "buffer" : 0,
            "byteLength" : 684,
            "byteOffset" : 1256
        },
        {
            "buffer" : 0,
            "byteLength" : 684,
            "byteOffset" : 1940
        },
        {
            "buffer" : 0,
            "byteLength" : 456,
            "byteOffset" : 2624
        },
        {
            "buffer" : 0,
            "byteLength" : 432,
            "byteOffset" : 3080
        }
    ],
    "buffers" : [
        {
            "byteLength" : 3512,
            "uri" : "Flag.bin"
        }
    ]
}
