{
    "asset" : {
        "generator" : "Khronos glTF Blender I/O v1.8.19",
        "version" : "2.0"
    },
    "scene" : 0,
    "scenes" : [
        {
            "name" : "Scene",
            "nodes" : [
                0
            ]
        }
    ],
    "nodes" : [
        {
            "mesh" : 0,
            "name" : "GasBottle_v1"
        }
    ],
    "materials" : [
        {
            "doubleSided" : true,
            "name" : "Material.007",
            "pbrMetallicRoughness" : {
                "baseColorFactor" : [
                    0.44797849655151367,
                    0.036711592227220535,
                    0.02590673230588436,
                    1
                ],
                "roughnessFactor" : 0.5
            }
        },
        {
            "doubleSided" : true,
            "name" : "Material.006",
            "pbrMetallicRoughness" : {
                "baseColorFactor" : [
                    0.7642737030982971,
                    0.7294957041740417,
                    0.8000000715255737,
                    1
                ],
                "metallicFactor" : 0,
                "roughnessFactor" : 0.16535432636737823
            }
        }
    ],
    "meshes" : [
        {
            "name" : "Cylinder.008",
            "primitives" : [
                {
                    "attributes" : {
                        "POSITION" : 0,
                        "NORMAL" : 1,
                        "TEXCOORD_0" : 2
                    },
                    "indices" : 3,
                    "material" : 0
                },
                {
                    "attributes" : {
                        "POSITION" : 4,
                        "NORMAL" : 5,
                        "TEXCOORD_0" : 6
                    },
                    "indices" : 7,
                    "material" : 1
                }
            ]
        }
    ],
    "accessors" : [
        {
            "bufferView" : 0,
            "componentType" : 5126,
            "count" : 434,
            "max" : [
                0.13809072971343994,
                0.7598555088043213,
                0.13809072971343994
            ],
            "min" : [
                -0.13809072971343994,
                0.045142438262701035,
                -0.13809072971343994
            ],
            "type" : "VEC3"
        },
        {
            "bufferView" : 1,
            "componentType" : 5126,
            "count" : 434,
            "type" : "VEC3"
        },
        {
            "bufferView" : 2,
            "componentType" : 5126,
            "count" : 434,
            "type" : "VEC2"
        },
        {
            "bufferView" : 3,
            "componentType" : 5123,
            "count" : 2154,
            "type" : "SCALAR"
        },
        {
            "bufferView" : 4,
            "componentType" : 5126,
            "count" : 182,
            "max" : [
                0.10889437794685364,
                0.7359151840209961,
                0.10889437794685364
            ],
            "min" : [
                -0.10889437794685364,
                -0.00016522605437785387,
                -0.10889437794685364
            ],
            "type" : "VEC3"
        },
        {
            "bufferView" : 5,
            "componentType" : 5126,
            "count" : 182,
            "type" : "VEC3"
        },
        {
            "bufferView" : 6,
            "componentType" : 5126,
            "count" : 182,
            "type" : "VEC2"
        },
        {
            "bufferView" : 7,
            "componentType" : 5123,
            "count" : 810,
            "type" : "SCALAR"
        }
    ],
    "bufferViews" : [
        {
            "buffer" : 0,
            "byteLength" : 5208,
            "byteOffset" : 0
        },
        {
            "buffer" : 0,
            "byteLength" : 5208,
            "byteOffset" : 5208
        },
        {
            "buffer" : 0,
            "byteLength" : 3472,
            "byteOffset" : 10416
        },
        {
            "buffer" : 0,
            "byteLength" : 4308,
            "byteOffset" : 13888
        },
        {
            "buffer" : 0,
            "byteLength" : 2184,
            "byteOffset" : 18196
        },
        {
            "buffer" : 0,
            "byteLength" : 2184,
            "byteOffset" : 20380
        },
        {
            "buffer" : 0,
            "byteLength" : 1456,
            "byteOffset" : 22564
        },
        {
            "buffer" : 0,
            "byteLength" : 1620,
            "byteOffset" : 24020
        }
    ],
    "buffers" : [
        {
            "byteLength" : 25640,
            "uri" : "GasBottle_v1.bin"
        }
    ]
}
