{
    "asset" : {
        "generator" : "Khronos glTF Blender I/O v1.8.19",
        "version" : "2.0"
    },
    "scene" : 0,
    "scenes" : [
        {
            "name" : "Scene",
            "nodes" : [
                0
            ]
        }
    ],
    "nodes" : [
        {
            "mesh" : 0,
            "name" : "Plane"
        }
    ],
    "materials" : [
        {
            "doubleSided" : true,
            "name" : "Key",
            "pbrMetallicRoughness" : {
                "baseColorFactor" : [
                    0.6343494653701782,
                    0.45551976561546326,
                    0.0909661129117012,
                    1
                ],
                "roughnessFactor" : 0.6000000238418579
            }
        },
        {
            "doubleSided" : true,
            "name" : "Material.013",
            "pbrMetallicRoughness" : {
                "baseColorFactor" : [
                    0.0025564178358763456,
                    0.0025564178358763456,
                    0.0025564178358763456,
                    1
                ],
                "metallicFactor" : 0,
                "roughnessFactor" : 0.8464567065238953
            }
        }
    ],
    "meshes" : [
        {
            "name" : "Plane.001",
            "primitives" : [
                {
                    "attributes" : {
                        "POSITION" : 0,
                        "NORMAL" : 1,
                        "TEXCOORD_0" : 2
                    },
                    "indices" : 3,
                    "material" : 0
                },
                {
                    "attributes" : {
                        "POSITION" : 4,
                        "NORMAL" : 5,
                        "TEXCOORD_0" : 6
                    },
                    "indices" : 7,
                    "material" : 1
                }
            ]
        }
    ],
    "accessors" : [
        {
            "bufferView" : 0,
            "componentType" : 5126,
            "count" : 136,
            "max" : [
                1.246650218963623,
                0.046399764716625214,
                0.3480745553970337
            ],
            "min" : [
                0.18275687098503113,
                0,
                -0.10328112542629242
            ],
            "type" : "VEC3"
        },
        {
            "bufferView" : 1,
            "componentType" : 5126,
            "count" : 136,
            "type" : "VEC3"
        },
        {
            "bufferView" : 2,
            "componentType" : 5126,
            "count" : 136,
            "type" : "VEC2"
        },
        {
            "bufferView" : 3,
            "componentType" : 5123,
            "count" : 270,
            "type" : "SCALAR"
        },
        {
            "bufferView" : 4,
            "componentType" : 5126,
            "count" : 244,
            "max" : [
                0.18275688588619232,
                0.0749165490269661,
                0.3016931116580963
            ],
            "min" : [
                -0.5130943655967712,
                -0.028516780585050583,
                -0.3016931116580963
            ],
            "type" : "VEC3"
        },
        {
            "bufferView" : 5,
            "componentType" : 5126,
            "count" : 244,
            "type" : "VEC3"
        },
        {
            "bufferView" : 6,
            "componentType" : 5126,
            "count" : 244,
            "type" : "VEC2"
        },
        {
            "bufferView" : 7,
            "componentType" : 5123,
            "count" : 498,
            "type" : "SCALAR"
        }
    ],
    "bufferViews" : [
        {
            "buffer" : 0,
            "byteLength" : 1632,
            "byteOffset" : 0
        },
        {
            "buffer" : 0,
            "byteLength" : 1632,
            "byteOffset" : 1632
        },
        {
            "buffer" : 0,
            "byteLength" : 1088,
            "byteOffset" : 3264
        },
        {
            "buffer" : 0,
            "byteLength" : 540,
            "byteOffset" : 4352
        },
        {
            "buffer" : 0,
            "byteLength" : 2928,
            "byteOffset" : 4892
        },
        {
            "buffer" : 0,
            "byteLength" : 2928,
            "byteOffset" : 7820
        },
        {
            "buffer" : 0,
            "byteLength" : 1952,
            "byteOffset" : 10748
        },
        {
            "buffer" : 0,
            "byteLength" : 996,
            "byteOffset" : 12700
        }
    ],
    "buffers" : [
        {
            "byteLength" : 13696,
            "uri" : "Key.bin"
        }
    ]
}
