{
    "asset" : {
        "generator" : "Khronos glTF Blender I/O v1.8.19",
        "version" : "2.0"
    },
    "scene" : 0,
    "scenes" : [
        {
            "name" : "Scene",
            "nodes" : [
                0
            ]
        }
    ],
    "nodes" : [
        {
            "mesh" : 0,
            "name" : "Locker"
        }
    ],
    "materials" : [
        {
            "doubleSided" : true,
            "name" : "LockerPrimary",
            "pbrMetallicRoughness" : {
                "baseColorFactor" : [
                    0.3031942546367645,
                    0.1910760998725891,
                    0.11482427269220352,
                    1
                ],
                "metallicFactor" : 0,
                "roughnessFactor" : 0.5
            }
        },
        {
            "doubleSided" : true,
            "name" : "LockerBase",
            "pbrMetallicRoughness" : {
                "baseColorFactor" : [
                    0.046953313052654266,
                    0.024017158895730972,
                    0.015449007041752338,
                    1
                ],
                "metallicFactor" : 0,
                "roughnessFactor" : 0.5
            }
        }
    ],
    "meshes" : [
        {
            "name" : "Cube.014",
            "primitives" : [
                {
                    "attributes" : {
                        "POSITION" : 0,
                        "NORMAL" : 1,
                        "TEXCOORD_0" : 2
                    },
                    "indices" : 3,
                    "material" : 0
                },
                {
                    "attributes" : {
                        "POSITION" : 4,
                        "NORMAL" : 5,
                        "TEXCOORD_0" : 6
                    },
                    "indices" : 7,
                    "material" : 1
                }
            ]
        }
    ],
    "accessors" : [
        {
            "bufferView" : 0,
            "componentType" : 5126,
            "count" : 52,
            "max" : [
                0.5375633239746094,
                2.052952766418457,
                0.407345175743103
            ],
            "min" : [
                -0.5375630855560303,
                0.024437131360173225,
                0.3799663484096527
            ],
            "type" : "VEC3"
        },
        {
            "bufferView" : 1,
            "componentType" : 5126,
            "count" : 52,
            "type" : "VEC3"
        },
        {
            "bufferView" : 2,
            "componentType" : 5126,
            "count" : 52,
            "type" : "VEC2"
        },
        {
            "bufferView" : 3,
            "componentType" : 5123,
            "count" : 78,
            "type" : "SCALAR"
        },
        {
            "bufferView" : 4,
            "componentType" : 5126,
            "count" : 68,
            "max" : [
                0.5774017572402954,
                2.07738995552063,
                0.4220583140850067
            ],
            "min" : [
                -0.5774017572402954,
                0,
                -0.35914143919944763
            ],
            "type" : "VEC3"
        },
        {
            "bufferView" : 5,
            "componentType" : 5126,
            "count" : 68,
            "type" : "VEC3"
        },
        {
            "bufferView" : 6,
            "componentType" : 5126,
            "count" : 68,
            "type" : "VEC2"
        },
        {
            "bufferView" : 7,
            "componentType" : 5123,
            "count" : 102,
            "type" : "SCALAR"
        }
    ],
    "bufferViews" : [
        {
            "buffer" : 0,
            "byteLength" : 624,
            "byteOffset" : 0
        },
        {
            "buffer" : 0,
            "byteLength" : 624,
            "byteOffset" : 624
        },
        {
            "buffer" : 0,
            "byteLength" : 416,
            "byteOffset" : 1248
        },
        {
            "buffer" : 0,
            "byteLength" : 156,
            "byteOffset" : 1664
        },
        {
            "buffer" : 0,
            "byteLength" : 816,
            "byteOffset" : 1820
        },
        {
            "buffer" : 0,
            "byteLength" : 816,
            "byteOffset" : 2636
        },
        {
            "buffer" : 0,
            "byteLength" : 544,
            "byteOffset" : 3452
        },
        {
            "buffer" : 0,
            "byteLength" : 204,
            "byteOffset" : 3996
        }
    ],
    "buffers" : [
        {
            "byteLength" : 4200,
            "uri" : "Locker.bin"
        }
    ]
}
