{
    "asset" : {
        "generator" : "Khronos glTF Blender I/O v1.8.19",
        "version" : "2.0"
    },
    "scene" : 0,
    "scenes" : [
        {
            "name" : "Scene",
            "nodes" : [
                0
            ]
        }
    ],
    "nodes" : [
        {
            "mesh" : 0,
            "name" : "Regal"
        }
    ],
    "materials" : [
        {
            "doubleSided" : true,
            "name" : "RegalPrimary",
            "pbrMetallicRoughness" : {
                "baseColorFactor" : [
                    0.08000731468200684,
                    0.04713316634297371,
                    0.02792283333837986,
                    1
                ],
                "metallicFactor" : 0,
                "roughnessFactor" : 0.5
            }
        },
        {
            "doubleSided" : true,
            "name" : "RegalSecondary",
            "pbrMetallicRoughness" : {
                "baseColorFactor" : [
                    0.13758207857608795,
                    0.13758207857608795,
                    0.13758207857608795,
                    1
                ],
                "metallicFactor" : 0,
                "roughnessFactor" : 0.5
            }
        }
    ],
    "meshes" : [
        {
            "name" : "Cylinder.013",
            "primitives" : [
                {
                    "attributes" : {
                        "POSITION" : 0,
                        "NORMAL" : 1,
                        "TEXCOORD_0" : 2
                    },
                    "indices" : 3,
                    "material" : 0
                },
                {
                    "attributes" : {
                        "POSITION" : 4,
                        "NORMAL" : 5,
                        "TEXCOORD_0" : 6
                    },
                    "indices" : 7,
                    "material" : 1
                }
            ]
        }
    ],
    "accessors" : [
        {
            "bufferView" : 0,
            "componentType" : 5126,
            "count" : 128,
            "max" : [
                0.8976308107376099,
                1.5572751760482788,
                0.26658159494400024
            ],
            "min" : [
                -0.8976308107376099,
                0.371684193611145,
                -0.26658159494400024
            ],
            "type" : "VEC3"
        },
        {
            "bufferView" : 1,
            "componentType" : 5126,
            "count" : 128,
            "type" : "VEC3"
        },
        {
            "bufferView" : 2,
            "componentType" : 5126,
            "count" : 128,
            "type" : "VEC2"
        },
        {
            "bufferView" : 3,
            "componentType" : 5123,
            "count" : 216,
            "type" : "SCALAR"
        },
        {
            "bufferView" : 4,
            "componentType" : 5126,
            "count" : 160,
            "max" : [
                0.8286432027816772,
                1.5572751760482788,
                0.21115851402282715
            ],
            "min" : [
                -0.8286432027816772,
                0,
                -0.21115851402282715
            ],
            "type" : "VEC3"
        },
        {
            "bufferView" : 5,
            "componentType" : 5126,
            "count" : 160,
            "type" : "VEC3"
        },
        {
            "bufferView" : 6,
            "componentType" : 5126,
            "count" : 160,
            "type" : "VEC2"
        },
        {
            "bufferView" : 7,
            "componentType" : 5123,
            "count" : 264,
            "type" : "SCALAR"
        }
    ],
    "bufferViews" : [
        {
            "buffer" : 0,
            "byteLength" : 1536,
            "byteOffset" : 0
        },
        {
            "buffer" : 0,
            "byteLength" : 1536,
            "byteOffset" : 1536
        },
        {
            "buffer" : 0,
            "byteLength" : 1024,
            "byteOffset" : 3072
        },
        {
            "buffer" : 0,
            "byteLength" : 432,
            "byteOffset" : 4096
        },
        {
            "buffer" : 0,
            "byteLength" : 1920,
            "byteOffset" : 4528
        },
        {
            "buffer" : 0,
            "byteLength" : 1920,
            "byteOffset" : 6448
        },
        {
            "buffer" : 0,
            "byteLength" : 1280,
            "byteOffset" : 8368
        },
        {
            "buffer" : 0,
            "byteLength" : 528,
            "byteOffset" : 9648
        }
    ],
    "buffers" : [
        {
            "byteLength" : 10176,
            "uri" : "Regal.bin"
        }
    ]
}
