{
    "asset" : {
        "generator" : "Khronos glTF Blender I/O v1.8.19",
        "version" : "2.0"
    },
    "scene" : 0,
    "scenes" : [
        {
            "name" : "Scene",
            "nodes" : [
                0
            ]
        }
    ],
    "nodes" : [
        {
            "mesh" : 0,
            "name" : "Speaker"
        }
    ],
    "materials" : [
        {
            "doubleSided" : true,
            "name" : "Material.010",
            "pbrMetallicRoughness" : {
                "baseColorFactor" : [
                    0.3757481873035431,
                    0.22056476771831512,
                    0.1300874948501587,
                    1
                ],
                "metallicFactor" : 0,
                "roughnessFactor" : 0.5
            }
        },
        {
            "doubleSided" : true,
            "name" : "Material.009",
            "pbrMetallicRoughness" : {
                "baseColorFactor" : [
                    0.006370009388774633,
                    0.006370009388774633,
                    0.006370009388774633,
                    1
                ],
                "metallicFactor" : 0,
                "roughnessFactor" : 0.9015747904777527
            }
        },
        {
            "doubleSided" : true,
            "name" : "Material.011",
            "pbrMetallicRoughness" : {
                "baseColorFactor" : [
                    0.5173322558403015,
                    0.45079168677330017,
                    0.13720519840717316,
                    1
                ],
                "roughnessFactor" : 0.30314961075782776
            }
        }
    ],
    "meshes" : [
        {
            "name" : "Cube.011",
            "primitives" : [
                {
                    "attributes" : {
                        "POSITION" : 0,
                        "NORMAL" : 1,
                        "TEXCOORD_0" : 2
                    },
                    "indices" : 3,
                    "material" : 0
                },
                {
                    "attributes" : {
                        "POSITION" : 4,
                        "NORMAL" : 5,
                        "TEXCOORD_0" : 6
                    },
                    "indices" : 7,
                    "material" : 1
                },
                {
                    "attributes" : {
                        "POSITION" : 8,
                        "NORMAL" : 9,
                        "TEXCOORD_0" : 10
                    },
                    "indices" : 11,
                    "material" : 2
                }
            ]
        }
    ],
    "accessors" : [
        {
            "bufferView" : 0,
            "componentType" : 5126,
            "count" : 88,
            "max" : [
                0.21263694763183594,
                1.1441742181777954,
                0.1853792518377304
            ],
            "min" : [
                -0.21263694763183594,
                0.8558257818222046,
                -0.1853792518377304
            ],
            "type" : "VEC3"
        },
        {
            "bufferView" : 1,
            "componentType" : 5126,
            "count" : 88,
            "type" : "VEC3"
        },
        {
            "bufferView" : 2,
            "componentType" : 5126,
            "count" : 88,
            "type" : "VEC2"
        },
        {
            "bufferView" : 3,
            "componentType" : 5123,
            "count" : 138,
            "type" : "SCALAR"
        },
        {
            "bufferView" : 4,
            "componentType" : 5126,
            "count" : 76,
            "max" : [
                0.20117945969104767,
                1.1057745218276978,
                0.2097528725862503
            ],
            "min" : [
                -0.20117934048175812,
                0.8942254185676575,
                0.18537911772727966
            ],
            "type" : "VEC3"
        },
        {
            "bufferView" : 5,
            "componentType" : 5126,
            "count" : 76,
            "type" : "VEC3"
        },
        {
            "bufferView" : 6,
            "componentType" : 5126,
            "count" : 76,
            "type" : "VEC2"
        },
        {
            "bufferView" : 7,
            "componentType" : 5123,
            "count" : 108,
            "type" : "SCALAR"
        },
        {
            "bufferView" : 8,
            "componentType" : 5126,
            "count" : 20,
            "max" : [
                0.1626535952091217,
                0.9452999830245972,
                0.21463292837142944
            ],
            "min" : [
                0.09919802844524384,
                0.9272292256355286,
                0.20975275337696075
            ],
            "type" : "VEC3"
        },
        {
            "bufferView" : 9,
            "componentType" : 5126,
            "count" : 20,
            "type" : "VEC3"
        },
        {
            "bufferView" : 10,
            "componentType" : 5126,
            "count" : 20,
            "type" : "VEC2"
        },
        {
            "bufferView" : 11,
            "componentType" : 5123,
            "count" : 30,
            "type" : "SCALAR"
        }
    ],
    "bufferViews" : [
        {
            "buffer" : 0,
            "byteLength" : 1056,
            "byteOffset" : 0
        },
        {
            "buffer" : 0,
            "byteLength" : 1056,
            "byteOffset" : 1056
        },
        {
            "buffer" : 0,
            "byteLength" : 704,
            "byteOffset" : 2112
        },
        {
            "buffer" : 0,
            "byteLength" : 276,
            "byteOffset" : 2816
        },
        {
            "buffer" : 0,
            "byteLength" : 912,
            "byteOffset" : 3092
        },
        {
            "buffer" : 0,
            "byteLength" : 912,
            "byteOffset" : 4004
        },
        {
            "buffer" : 0,
            "byteLength" : 608,
            "byteOffset" : 4916
        },
        {
            "buffer" : 0,
            "byteLength" : 216,
            "byteOffset" : 5524
        },
        {
            "buffer" : 0,
            "byteLength" : 240,
            "byteOffset" : 5740
        },
        {
            "buffer" : 0,
            "byteLength" : 240,
            "byteOffset" : 5980
        },
        {
            "buffer" : 0,
            "byteLength" : 160,
            "byteOffset" : 6220
        },
        {
            "buffer" : 0,
            "byteLength" : 60,
            "byteOffset" : 6380
        }
    ],
    "buffers" : [
        {
            "byteLength" : 6440,
            "uri" : "Speaker.bin"
        }
    ]
}
