{
    "asset" : {
        "generator" : "Khronos glTF Blender I/O v1.8.19",
        "version" : "2.0"
    },
    "scene" : 0,
    "scenes" : [
        {
            "name" : "Scene",
            "nodes" : [
                0,
                1,
                2
            ]
        }
    ],
    "nodes" : [
        {
            "mesh" : 0,
            "name" : "Table"
        },
        {
            "mesh" : 1,
            "name" : "TableWaterTab"
        },
        {
            "mesh" : 2,
            "name" : "TableWaterTapSmall"
        }
    ],
    "materials" : [
        {
            "doubleSided" : true,
            "name" : "Material.005",
            "pbrMetallicRoughness" : {
                "baseColorFactor" : [
                    0.1425299048423767,
                    0.45753076672554016,
                    0.20201995968818665,
                    1
                ],
                "metallicFactor" : 0,
                "roughnessFactor" : 0.8307086229324341
            }
        },
        {
            "doubleSided" : true,
            "name" : "Material.004",
            "pbrMetallicRoughness" : {
                "baseColorFactor" : [
                    0.28536146879196167,
                    0.32795047760009766,
                    0.47698941826820374,
                    1
                ],
                "roughnessFactor" : 0.27952754497528076
            }
        }
    ],
    "meshes" : [
        {
            "name" : "Cube.008",
            "primitives" : [
                {
                    "attributes" : {
                        "POSITION" : 0,
                        "NORMAL" : 1,
                        "TEXCOORD_0" : 2
                    },
                    "indices" : 3,
                    "material" : 0
                },
                {
                    "attributes" : {
                        "POSITION" : 4,
                        "NORMAL" : 5,
                        "TEXCOORD_0" : 6
                    },
                    "indices" : 7,
                    "material" : 1
                }
            ]
        },
        {
            "name" : "Cylinder.010",
            "primitives" : [
                {
                    "attributes" : {
                        "POSITION" : 8,
                        "NORMAL" : 9,
                        "TEXCOORD_0" : 10
                    },
                    "indices" : 11,
                    "material" : 1
                }
            ]
        },
        {
            "name" : "Cylinder.011",
            "primitives" : [
                {
                    "attributes" : {
                        "POSITION" : 12,
                        "NORMAL" : 13,
                        "TEXCOORD_0" : 14
                    },
                    "indices" : 15,
                    "material" : 1
                }
            ]
        }
    ],
    "accessors" : [
        {
            "bufferView" : 0,
            "componentType" : 5126,
            "count" : 365,
            "max" : [
                1.8748615980148315,
                0.9683778882026672,
                0.7629212737083435
            ],
            "min" : [
                -1.6085487604141235,
                0,
                -0.7629212737083435
            ],
            "type" : "VEC3"
        },
        {
            "bufferView" : 1,
            "componentType" : 5126,
            "count" : 365,
            "type" : "VEC3"
        },
        {
            "bufferView" : 2,
            "componentType" : 5126,
            "count" : 365,
            "type" : "VEC2"
        },
        {
            "bufferView" : 3,
            "componentType" : 5123,
            "count" : 630,
            "type" : "SCALAR"
        },
        {
            "bufferView" : 4,
            "componentType" : 5126,
            "count" : 70,
            "max" : [
                1.6365199089050293,
                0.9683778882026672,
                0.6581748723983765
            ],
            "min" : [
                -1.429964542388916,
                0,
                -0.6581748723983765
            ],
            "type" : "VEC3"
        },
        {
            "bufferView" : 5,
            "componentType" : 5126,
            "count" : 70,
            "type" : "VEC3"
        },
        {
            "bufferView" : 6,
            "componentType" : 5126,
            "count" : 70,
            "type" : "VEC2"
        },
        {
            "bufferView" : 7,
            "componentType" : 5123,
            "count" : 126,
            "type" : "SCALAR"
        },
        {
            "bufferView" : 8,
            "componentType" : 5126,
            "count" : 106,
            "max" : [
                1.7760871648788452,
                1.3563473224639893,
                0.03141624853014946
            ],
            "min" : [
                1.5501781702041626,
                0.7638317942619324,
                -0.03680110350251198
            ],
            "type" : "VEC3"
        },
        {
            "bufferView" : 9,
            "componentType" : 5126,
            "count" : 106,
            "type" : "VEC3"
        },
        {
            "bufferView" : 10,
            "componentType" : 5126,
            "count" : 106,
            "type" : "VEC2"
        },
        {
            "bufferView" : 11,
            "componentType" : 5123,
            "count" : 468,
            "type" : "SCALAR"
        },
        {
            "bufferView" : 12,
            "componentType" : 5126,
            "count" : 212,
            "max" : [
                1.7897279262542725,
                1.157592535018921,
                0.16978025436401367
            ],
            "min" : [
                1.621503472328186,
                0.8899669051170349,
                -0.1485511064529419
            ],
            "type" : "VEC3"
        },
        {
            "bufferView" : 13,
            "componentType" : 5126,
            "count" : 212,
            "type" : "VEC3"
        },
        {
            "bufferView" : 14,
            "componentType" : 5126,
            "count" : 212,
            "type" : "VEC2"
        },
        {
            "bufferView" : 15,
            "componentType" : 5123,
            "count" : 936,
            "type" : "SCALAR"
        }
    ],
    "bufferViews" : [
        {
            "buffer" : 0,
            "byteLength" : 4380,
            "byteOffset" : 0
        },
        {
            "buffer" : 0,
            "byteLength" : 4380,
            "byteOffset" : 4380
        },
        {
            "buffer" : 0,
            "byteLength" : 2920,
            "byteOffset" : 8760
        },
        {
            "buffer" : 0,
            "byteLength" : 1260,
            "byteOffset" : 11680
        },
        {
            "buffer" : 0,
            "byteLength" : 840,
            "byteOffset" : 12940
        },
        {
            "buffer" : 0,
            "byteLength" : 840,
            "byteOffset" : 13780
        },
        {
            "buffer" : 0,
            "byteLength" : 560,
            "byteOffset" : 14620
        },
        {
            "buffer" : 0,
            "byteLength" : 252,
            "byteOffset" : 15180
        },
        {
            "buffer" : 0,
            "byteLength" : 1272,
            "byteOffset" : 15432
        },
        {
            "buffer" : 0,
            "byteLength" : 1272,
            "byteOffset" : 16704
        },
        {
            "buffer" : 0,
            "byteLength" : 848,
            "byteOffset" : 17976
        },
        {
            "buffer" : 0,
            "byteLength" : 936,
            "byteOffset" : 18824
        },
        {
            "buffer" : 0,
            "byteLength" : 2544,
            "byteOffset" : 19760
        },
        {
            "buffer" : 0,
            "byteLength" : 2544,
            "byteOffset" : 22304
        },
        {
            "buffer" : 0,
            "byteLength" : 1696,
            "byteOffset" : 24848
        },
        {
            "buffer" : 0,
            "byteLength" : 1872,
            "byteOffset" : 26544
        }
    ],
    "buffers" : [
        {
            "byteLength" : 28416,
            "uri" : "Table.bin"
        }
    ]
}
