{
    "asset" : {
        "generator" : "Khronos glTF Blender I/O v1.8.19",
        "version" : "2.0"
    },
    "extensionsUsed" : [
        "KHR_materials_transmission"
    ],
    "scene" : 0,
    "scenes" : [
        {
            "name" : "Scene",
            "nodes" : [
                1
            ]
        }
    ],
    "nodes" : [
        {
            "mesh" : 0,
            "name" : "Testtubes"
        },
        {
            "children" : [
                0
            ],
            "mesh" : 1,
            "name" : "TestTubeHolder"
        }
    ],
    "materials" : [
        {
            "alphaMode" : "BLEND",
            "doubleSided" : true,
            "extensions" : {
                "KHR_materials_transmission" : {
                    "transmissionFactor" : 1
                }
            },
            "name" : "Material.014",
            "pbrMetallicRoughness" : {
                "baseColorFactor" : [
                    0.800000011920929,
                    0.800000011920929,
                    0.800000011920929,
                    1
                ],
                "metallicFactor" : 0,
                "roughnessFactor" : 0.5
            }
        },
        {
            "doubleSided" : true,
            "name" : "Material.018",
            "pbrMetallicRoughness" : {
                "baseColorFactor" : [
                    0.08000624924898148,
                    0.036066047847270966,
                    0.017262594774365425,
                    1
                ],
                "metallicFactor" : 0,
                "roughnessFactor" : 0.8070865869522095
            }
        }
    ],
    "meshes" : [
        {
            "name" : "Sphere.002",
            "primitives" : [
                {
                    "attributes" : {
                        "POSITION" : 0,
                        "NORMAL" : 1,
                        "TEXCOORD_0" : 2
                    },
                    "indices" : 3,
                    "material" : 0
                }
            ]
        },
        {
            "name" : "Cube.016",
            "primitives" : [
                {
                    "attributes" : {
                        "POSITION" : 4,
                        "NORMAL" : 5,
                        "TEXCOORD_0" : 6
                    },
                    "indices" : 7,
                    "material" : 1
                }
            ]
        }
    ],
    "accessors" : [
        {
            "bufferView" : 0,
            "componentType" : 5126,
            "count" : 532,
            "max" : [
                0.24970366060733795,
                0.37569618225097656,
                0.041322480887174606
            ],
            "min" : [
                -0.2296370416879654,
                0.011698722839355469,
                -0.04132246971130371
            ],
            "type" : "VEC3"
        },
        {
            "bufferView" : 1,
            "componentType" : 5126,
            "count" : 532,
            "type" : "VEC3"
        },
        {
            "bufferView" : 2,
            "componentType" : 5126,
            "count" : 532,
            "type" : "VEC2"
        },
        {
            "bufferView" : 3,
            "componentType" : 5123,
            "count" : 2664,
            "type" : "SCALAR"
        },
        {
            "bufferView" : 4,
            "componentType" : 5126,
            "count" : 218,
            "max" : [
                0.2818971872329712,
                0.20441007614135742,
                0.09023576229810715
            ],
            "min" : [
                -0.2687848210334778,
                0.0021332502365112305,
                -0.09023576229810715
            ],
            "type" : "VEC3"
        },
        {
            "bufferView" : 5,
            "componentType" : 5126,
            "count" : 218,
            "type" : "VEC3"
        },
        {
            "bufferView" : 6,
            "componentType" : 5126,
            "count" : 218,
            "type" : "VEC2"
        },
        {
            "bufferView" : 7,
            "componentType" : 5123,
            "count" : 444,
            "type" : "SCALAR"
        }
    ],
    "bufferViews" : [
        {
            "buffer" : 0,
            "byteLength" : 6384,
            "byteOffset" : 0
        },
        {
            "buffer" : 0,
            "byteLength" : 6384,
            "byteOffset" : 6384
        },
        {
            "buffer" : 0,
            "byteLength" : 4256,
            "byteOffset" : 12768
        },
        {
            "buffer" : 0,
            "byteLength" : 5328,
            "byteOffset" : 17024
        },
        {
            "buffer" : 0,
            "byteLength" : 2616,
            "byteOffset" : 22352
        },
        {
            "buffer" : 0,
            "byteLength" : 2616,
            "byteOffset" : 24968
        },
        {
            "buffer" : 0,
            "byteLength" : 1744,
            "byteOffset" : 27584
        },
        {
            "buffer" : 0,
            "byteLength" : 888,
            "byteOffset" : 29328
        }
    ],
    "buffers" : [
        {
            "byteLength" : 30216,
            "uri" : "TestTube_Holder.bin"
        }
    ]
}
