{
    "asset" : {
        "generator" : "Khronos glTF Blender I/O v1.8.19",
        "version" : "2.0"
    },
    "extensionsUsed" : [
        "KHR_materials_transmission"
    ],
    "scene" : 0,
    "scenes" : [
        {
            "name" : "Scene",
            "nodes" : [
                1
            ]
        }
    ],
    "nodes" : [
        {
            "mesh" : 0,
            "name" : "TrankInner",
            "scale" : [
                0.9643672704696655,
                0.9643672704696655,
                0.9643672704696655
            ],
            "translation" : [
                0,
                0.015534777194261551,
                0
            ]
        },
        {
            "children" : [
                0
            ],
            "mesh" : 1,
            "name" : "Trank"
        }
    ],
    "materials" : [
        {
            "doubleSided" : true,
            "name" : "Material.015",
            "pbrMetallicRoughness" : {
                "baseColorFactor" : [
                    0.022530246526002884,
                    0.8000000715255737,
                    0.23221254348754883,
                    1
                ],
                "metallicFactor" : 0,
                "roughnessFactor" : 0.5
            }
        },
        {
            "alphaMode" : "BLEND",
            "doubleSided" : true,
            "extensions" : {
                "KHR_materials_transmission" : {
                    "transmissionFactor" : 1
                }
            },
            "name" : "Material.014",
            "pbrMetallicRoughness" : {
                "baseColorFactor" : [
                    0.800000011920929,
                    0.800000011920929,
                    0.800000011920929,
                    1
                ],
                "metallicFactor" : 0,
                "roughnessFactor" : 0.5
            }
        }
    ],
    "meshes" : [
        {
            "name" : "Cube.027",
            "primitives" : [
                {
                    "attributes" : {
                        "POSITION" : 0,
                        "NORMAL" : 1,
                        "TEXCOORD_0" : 2
                    },
                    "indices" : 3,
                    "material" : 0
                }
            ]
        },
        {
            "name" : "Cube.025",
            "primitives" : [
                {
                    "attributes" : {
                        "POSITION" : 4,
                        "NORMAL" : 5,
                        "TEXCOORD_0" : 6
                    },
                    "indices" : 7,
                    "material" : 1
                }
            ]
        }
    ],
    "accessors" : [
        {
            "bufferView" : 0,
            "componentType" : 5126,
            "count" : 577,
            "max" : [
                1.2772612571716309,
                1.5257269144058228,
                1.2772612571716309
            ],
            "min" : [
                -1.2772612571716309,
                0.0018477695994079113,
                -1.2772612571716309
            ],
            "type" : "VEC3"
        },
        {
            "bufferView" : 1,
            "componentType" : 5126,
            "count" : 577,
            "type" : "VEC3"
        },
        {
            "bufferView" : 2,
            "componentType" : 5126,
            "count" : 577,
            "type" : "VEC2"
        },
        {
            "bufferView" : 3,
            "componentType" : 5123,
            "count" : 2880,
            "type" : "SCALAR"
        },
        {
            "bufferView" : 4,
            "componentType" : 5126,
            "count" : 725,
            "max" : [
                1.2772612571716309,
                2.9578399658203125,
                1.2772612571716309
            ],
            "min" : [
                -1.2772612571716309,
                0.0018477695994079113,
                -1.2772612571716309
            ],
            "type" : "VEC3"
        },
        {
            "bufferView" : 5,
            "componentType" : 5126,
            "count" : 725,
            "type" : "VEC3"
        },
        {
            "bufferView" : 6,
            "componentType" : 5126,
            "count" : 725,
            "type" : "VEC2"
        },
        {
            "bufferView" : 7,
            "componentType" : 5123,
            "count" : 3552,
            "type" : "SCALAR"
        }
    ],
    "bufferViews" : [
        {
            "buffer" : 0,
            "byteLength" : 6924,
            "byteOffset" : 0
        },
        {
            "buffer" : 0,
            "byteLength" : 6924,
            "byteOffset" : 6924
        },
        {
            "buffer" : 0,
            "byteLength" : 4616,
            "byteOffset" : 13848
        },
        {
            "buffer" : 0,
            "byteLength" : 5760,
            "byteOffset" : 18464
        },
        {
            "buffer" : 0,
            "byteLength" : 8700,
            "byteOffset" : 24224
        },
        {
            "buffer" : 0,
            "byteLength" : 8700,
            "byteOffset" : 32924
        },
        {
            "buffer" : 0,
            "byteLength" : 5800,
            "byteOffset" : 41624
        },
        {
            "buffer" : 0,
            "byteLength" : 7104,
            "byteOffset" : 47424
        }
    ],
    "buffers" : [
        {
            "byteLength" : 54528,
            "uri" : "data:application/octet-stream;base64,"
        }
    ]
}
