{
    "asset" : {
        "generator" : "Khronos glTF Blender I/O v1.8.19",
        "version" : "2.0"
    },
    "scene" : 0,
    "scenes" : [
        {
            "name" : "Scene",
            "nodes" : [
                0
            ]
        }
    ],
    "nodes" : [
        {
            "mesh" : 0,
            "name" : "Plane"
        }
    ],
    "materials" : [
        {
            "doubleSided" : true,
            "name" : "WeaponPrimary",
            "pbrMetallicRoughness" : {
                "baseColorFactor" : [
                    0.027209725230932236,
                    0.027209725230932236,
                    0.027209725230932236,
                    1
                ],
                "metallicFactor" : 0,
                "roughnessFactor" : 0.5
            }
        },
        {
            "doubleSided" : true,
            "name" : "WeaponR\u00f6hre",
            "pbrMetallicRoughness" : {
                "baseColorFactor" : [
                    0.8000000715255737,
                    0.09361818432807922,
                    0.10034819692373276,
                    1
                ],
                "metallicFactor" : 0,
                "roughnessFactor" : 0.5
            }
        },
        {
            "doubleSided" : true,
            "name" : "WeaponSecondary",
            "pbrMetallicRoughness" : {
                "baseColorFactor" : [
                    0.8000000715255737,
                    0.45241686701774597,
                    0.10360405594110489,
                    1
                ],
                "metallicFactor" : 0,
                "roughnessFactor" : 0.5
            }
        }
    ],
    "meshes" : [
        {
            "name" : "Plane",
            "primitives" : [
                {
                    "attributes" : {
                        "POSITION" : 0,
                        "NORMAL" : 1,
                        "TEXCOORD_0" : 2
                    },
                    "indices" : 3,
                    "material" : 0
                },
                {
                    "attributes" : {
                        "POSITION" : 4,
                        "NORMAL" : 5,
                        "TEXCOORD_0" : 6
                    },
                    "indices" : 7,
                    "material" : 1
                },
                {
                    "attributes" : {
                        "POSITION" : 8,
                        "NORMAL" : 9,
                        "TEXCOORD_0" : 10
                    },
                    "indices" : 11,
                    "material" : 2
                }
            ]
        }
    ],
    "accessors" : [
        {
            "bufferView" : 0,
            "componentType" : 5126,
            "count" : 2095,
            "max" : [
                0.9711852669715881,
                0.11769945919513702,
                0.08651246130466461
            ],
            "min" : [
                -0.9503037333488464,
                -0.29904282093048096,
                -0.0844731330871582
            ],
            "type" : "VEC3"
        },
        {
            "bufferView" : 1,
            "componentType" : 5126,
            "count" : 2095,
            "type" : "VEC3"
        },
        {
            "bufferView" : 2,
            "componentType" : 5126,
            "count" : 2095,
            "type" : "VEC2"
        },
        {
            "bufferView" : 3,
            "componentType" : 5123,
            "count" : 3750,
            "type" : "SCALAR"
        },
        {
            "bufferView" : 4,
            "componentType" : 5126,
            "count" : 58,
            "max" : [
                1.162377953529358,
                0.020212769508361816,
                0.01941191777586937
            ],
            "min" : [
                -0.6796813011169434,
                -0.020212532952427864,
                -0.017372582107782364
            ],
            "type" : "VEC3"
        },
        {
            "bufferView" : 5,
            "componentType" : 5126,
            "count" : 58,
            "type" : "VEC3"
        },
        {
            "bufferView" : 6,
            "componentType" : 5126,
            "count" : 58,
            "type" : "VEC2"
        },
        {
            "bufferView" : 7,
            "componentType" : 5123,
            "count" : 96,
            "type" : "SCALAR"
        },
        {
            "bufferView" : 8,
            "componentType" : 5126,
            "count" : 518,
            "max" : [
                1.162377953529358,
                0.14326052367687225,
                0.08331530541181564
            ],
            "min" : [
                -0.43056851625442505,
                -0.04231331869959831,
                -0.08127596974372864
            ],
            "type" : "VEC3"
        },
        {
            "bufferView" : 9,
            "componentType" : 5126,
            "count" : 518,
            "type" : "VEC3"
        },
        {
            "bufferView" : 10,
            "componentType" : 5126,
            "count" : 518,
            "type" : "VEC2"
        },
        {
            "bufferView" : 11,
            "componentType" : 5123,
            "count" : 1002,
            "type" : "SCALAR"
        }
    ],
    "bufferViews" : [
        {
            "buffer" : 0,
            "byteLength" : 25140,
            "byteOffset" : 0
        },
        {
            "buffer" : 0,
            "byteLength" : 25140,
            "byteOffset" : 25140
        },
        {
            "buffer" : 0,
            "byteLength" : 16760,
            "byteOffset" : 50280
        },
        {
            "buffer" : 0,
            "byteLength" : 7500,
            "byteOffset" : 67040
        },
        {
            "buffer" : 0,
            "byteLength" : 696,
            "byteOffset" : 74540
        },
        {
            "buffer" : 0,
            "byteLength" : 696,
            "byteOffset" : 75236
        },
        {
            "buffer" : 0,
            "byteLength" : 464,
            "byteOffset" : 75932
        },
        {
            "buffer" : 0,
            "byteLength" : 192,
            "byteOffset" : 76396
        },
        {
            "buffer" : 0,
            "byteLength" : 6216,
            "byteOffset" : 76588
        },
        {
            "buffer" : 0,
            "byteLength" : 6216,
            "byteOffset" : 82804
        },
        {
            "buffer" : 0,
            "byteLength" : 4144,
            "byteOffset" : 89020
        },
        {
            "buffer" : 0,
            "byteLength" : 2004,
            "byteOffset" : 93164
        }
    ],
    "buffers" : [
        {
            "byteLength" : 95168,
            "uri" : "Weapon.bin"
        }
    ]
}
